<svg xmlns="http://www.w3.org/2000/svg" xmlns:xlink="http://www.w3.org/1999/xlink" width="714.32" height="788.21" viewBox="0 0 714.32 788.21"><defs><clipPath id="a8baca40-bfe6-4b18-bfd9-25cc75bab938"><rect x="1.15" width="713.16" height="788.21" fill="none"/></clipPath><clipPath id="e7307f06-189b-44af-ab4d-4e0108355ac8"><path d="M391.76,563.28,286.15,788.21c-166-78.66-269.47-227.75-285-410.83l247.67-20.15c.72,9,4.77,28.45,6.49,37.37A220.25,220.25,0,0,1,288.75,384c24-5.67,10.41-10.29,17.66-11.15a131.06,131.06,0,0,0,15-2.49c2.13-.56,10.16-2.23,12.39-2.23s11.72-1.12,15.34,0,4.2,7.25,3.91,11.8S352.46,393,353,394s1.86,8.69,1.86,8.69,1.15,13.36,0,14.79-9.13,20.1-11,21-.57,2.82-.05,9.49S341,454,336.93,459.62s-14.46.18-21.26,4.83c-5.59,3.84-15.39,8.19-23.05,15C318.38,515.32,354.32,545.74,391.76,563.28Z" fill="none"/></clipPath><clipPath id="f45676cd-c324-418b-a229-073a3861e2de"><path d="M159,458.75c7.19-5.29,16-9,18.07-11.07s38.37-33.66,42.62-37,20.3-10.81,35.66-16.06,31.34-10.2,33.44-10.64,7-1.46,9.86-2.94,12.1-6.16,15-4.16,4.34,9.57,1.79,12S275.05,418,269.57,420.3s-35.18,19.74-42,21.9-21.74,9.5-27.43,13.6-16.74,10.65-16.74,10.65Z" fill="none"/></clipPath><clipPath id="b6f83172-2d5a-4f3a-9cbd-67446eb367f6"><path d="M176,460.27a76.35,76.35,0,0,1,16.23-12.86c9.48-5.48,36.62-30.24,41.7-33.05s14.24-11.28,38.56-19.58,32.86-13.43,39.38-14.94,17.39-3.21,21.68-5,11.86-4.52,14.66,2.61-1.59,11.83-7.59,16.58-35.52,18.8-35.52,18.8-46.81,19.61-52.51,23.31-43.35,34.76-43.35,34.76l-13.83,5.63Z" fill="none"/></clipPath><clipPath id="f65893d5-29da-4410-8609-504d1d6698cf"><path d="M206.63,470.17a54.57,54.57,0,0,0,14.78-10.09,308.51,308.51,0,0,1,28.1-22c7-4.56,27.26-15.36,43.4-19.62s37.47-10.17,40.82-11.6,16.46.77,16.28,8.24c-.32,12.75-6.43,15.86-15.21,17.74s-68.95,27-68.95,27-24.18,15.53-25.8,17.6-21.81,21.73-22.56,22.32-7,3.53-8.4,2.22-7.91-4.33-7.73-9.75.8-12.84,1-14.18S206.63,470.17,206.63,470.17Z" fill="none"/></clipPath><clipPath id="e57814fb-2f82-44cc-b167-a2e23ace17a6"><path d="M68.74,825.48s80.53-175.29,82.13-177.37a10.23,10.23,0,0,1,3.75-3S241.11,525,243.17,520.89s5.81-7,10.3-10.6,16-14.7,18.55-17.13,48.56-31.57,49.36-32.61,11-9.16,13.15-11.64,2.41-7.21,2.41-7.21-2.35-7.07-6.13-7.73-13.21,4.36-16.8,6-57,22.43-61.27,25.79-21.33,15.68-25.23,20a91.88,91.88,0,0,1-9.39,8.66l-3.36.9s.63-14.59-5.06-20.24a49.2,49.2,0,0,0-4.79-4c-7.28-5.51-18.45-12.08-23.2-12.81a103,103,0,0,0-14.63-1c-1.59,0-8.12,1.56-8.12,1.56a28.64,28.64,0,0,0-7.21,9.37c-2.71,5.81-14.42,30.54-19.79,39.67s-43.61,78.87-50.57,88S35.66,659.72,30.5,667.06-58.14,790.75-58.14,790.75Z" fill="none"/></clipPath><clipPath id="a880665c-bbb6-457f-aac4-b7eaacffbd48"><path d="M713.16,388.2,467.71,426.94a248.26,248.26,0,0,0-21.85-69.86c-6,3.77-13.33,8.1-16.1,8.64-5,1-3.91,1.81-12.28,4s-10-1.12-19.5-4-5.61.69-12.53,2.92-8.71,2.79-19.28,4.17-5.62.3-9.52,0-8.38-8.07-10.09-9.75-7.22-1.67-17.26-1.67S322,358,319.25,357.23s-3.35-12-3.91-16.49-8.37-3.35-8.37-3.35a35.49,35.49,0,0,1-11.57,0c-5.44-1.12-8.52-3.91-9.08-8.93s5.58-14.51,9.08-21.54,13.25-10.28,14.26-14.18,24.1-19.47,24.1-19.47l23.46-16.87a248.62,248.62,0,0,0-47.56-24.16l34.47-90.59a78.8,78.8,0,0,1-11.48-5.19c-7.82-4.47-3.91-3.35-11.28-19.11s-2.12-7.68,0-19.48,5.14-6.06,8.48-7.08,10.61,1,20.1,4.37c4.46,1.57,7.81,2.89,10.34,4L398,0C569.53,65.93,683.9,206.81,713.16,388.2Z" fill="none"/></clipPath><linearGradient id="e02856f5-6570-452f-91df-0b0653155bf1" x1="437.1" y1="221.86" x2="651.08" y2="221.86" gradientUnits="userSpaceOnUse"><stop offset="0.09" stop-color="#fff"/><stop offset="0.65" stop-color="#bfd8ff"/></linearGradient><linearGradient id="bc0a37a0-966b-4ff1-a69b-1c248a280f1f" x1="436.65" y1="183.24" x2="715.16" y2="183.24" xlink:href="#e02856f5-6570-452f-91df-0b0653155bf1"/><linearGradient id="e0f4192d-b628-4634-9fb6-a9f6494da634" x1="226.92" y1="206.33" x2="581.81" y2="206.33" xlink:href="#e02856f5-6570-452f-91df-0b0653155bf1"/><linearGradient id="eb92e54e-8cd4-492f-b43f-10c3726ffccd" x1="280.86" y1="151.17" x2="595.52" y2="151.17" xlink:href="#e02856f5-6570-452f-91df-0b0653155bf1"/><linearGradient id="e4bb2763-8ad1-4565-a4b1-61026f409b32" x1="-1141.87" y1="344.06" x2="-927.89" y2="344.06" gradientTransform="translate(1432.86 -291.9)" xlink:href="#e02856f5-6570-452f-91df-0b0653155bf1"/><linearGradient id="a5d68d9e-86cb-4e7a-a263-58213688d32c" x1="-2052.1" y1="582.63" x2="-1773.6" y2="582.63" gradientTransform="translate(2437.56 -491.84)" xlink:href="#e02856f5-6570-452f-91df-0b0653155bf1"/><linearGradient id="a7315cf4-afea-4b8a-a886-569da446c2d6" x1="-1352.05" y1="328.54" x2="-997.16" y2="328.54" gradientTransform="translate(1712.32 -260.85)" xlink:href="#e02856f5-6570-452f-91df-0b0653155bf1"/><linearGradient id="f52b7f60-133c-40c3-9ded-d6b7a46ba1eb" x1="-1298.1" y1="273.37" x2="-983.45" y2="273.37" gradientTransform="translate(1644.66 -150.52)" xlink:href="#e02856f5-6570-452f-91df-0b0653155bf1"/><linearGradient id="f5e37896-01a8-424f-88d3-811e3046989f" x1="-1236.32" y1="219.91" x2="-1022.34" y2="219.91" gradientTransform="translate(1621.78 21.82)" xlink:href="#e02856f5-6570-452f-91df-0b0653155bf1"/><linearGradient id="a83a4b2f-8343-4873-83b5-f3528960cafd" x1="-1290.72" y1="181.29" x2="-1012.21" y2="181.29" gradientTransform="translate(1666.04 99.06)" xlink:href="#e02856f5-6570-452f-91df-0b0653155bf1"/><linearGradient id="b835b230-c75b-4352-a1f8-5fd629eafb53" x1="-1446.51" y1="204.39" x2="-1091.62" y2="204.39" gradientTransform="translate(1901.23 52.87)" xlink:href="#e02856f5-6570-452f-91df-0b0653155bf1"/><linearGradient id="ba28a4c6-bd9a-44f8-a2b1-3a9177ec67d7" x1="-1392.56" y1="149.22" x2="-1077.91" y2="149.22" gradientTransform="translate(1833.58 163.2)" xlink:href="#e02856f5-6570-452f-91df-0b0653155bf1"/><linearGradient id="b5464e6e-c930-458f-9c92-af99d9f47e18" x1="531.56" y1="346.01" x2="745.54" y2="346.01" gradientTransform="translate(0 65.42)" xlink:href="#e02856f5-6570-452f-91df-0b0653155bf1"/><linearGradient id="a27c3ebe-0fc7-4e82-aa34-4e6b37304f47" x1="531.11" y1="307.39" x2="809.62" y2="307.39" gradientTransform="translate(0 65.42)" xlink:href="#e02856f5-6570-452f-91df-0b0653155bf1"/><linearGradient id="a38a0532-7c9d-438d-8194-299133a15f96" x1="450.64" y1="328.55" x2="805.53" y2="328.55" gradientTransform="translate(0 65.42)" xlink:href="#e02856f5-6570-452f-91df-0b0653155bf1"/><linearGradient id="f6a2fba1-6d5c-4864-b775-6afb713cfed7" x1="375.32" y1="275.32" x2="689.98" y2="275.32" gradientTransform="translate(0 65.42)" xlink:href="#e02856f5-6570-452f-91df-0b0653155bf1"/></defs><g style="isolation:isolate"><g id="f723fc23-ae2e-4a19-9115-186c870e340e" data-name="Layer 2"><g clip-path="url(#a8baca40-bfe6-4b18-bfd9-25cc75bab938)"><g clip-path="url(#e7307f06-189b-44af-ab4d-4e0108355ac8)"><path d="M397.19,563.92a257.43,257.43,0,0,1-147.06-212L-4.69,372.66C11.29,561,117.7,714.41,288.53,795.33Z" fill="#f89cbc"/><circle cx="158.39" cy="558.96" r="132.02" fill="#ffe493"/><path d="M-187.56,800.27s39.43-14.5,56.39-12.51c11.47,1.35,25.73-9.36,30.66-13.4a10.61,10.61,0,0,1,4.41-2.13c3.25-.74,8.54-1.87,10.4-1.88,17-.08,22-12.92,42.5-16.72,31.32-5.8,89,2.19,104.53-20.62,22.43-32.91,40.46-19.18,87.59-57.53,26.24-21.36,37.6-31.86,68.56-36.18,38.93-5.43,46.72-20.85,49.33-23.88s32.13-48.32,42.67-24.78,52.68,79.06,74.92,84.57,41.56,16,52.09,25,15.22,20.16,33.35,29.1,66.73,19.95,77.27,34.95,63.06,20.36,81.35,36Z" fill="#807b74"/><path d="M295.93,623.83c-5.93,0-4.92,10.09-13.48,11.63-5,.9-1.11,24-1.78,25.53a.43.43,0,0,1-.41.28c-1.26,0-4.56-4.72-5.1-10.52-.12-1.3-.36-1.8-.73-1.8-1.15,0-3.56,4.59-7.75,5.32-14.8,2.58,2.38,19.55-17.26,40.68-11.35,12.2-8.6,35.45-11.7,37.58a1.51,1.51,0,0,1-.88.31c-3,0-5.4-10.3-8-20.61s-5.3-20.6-8.78-20.6a2.18,2.18,0,0,0-1.3.46c-4.43,3.17-8.27,4.29-11.61,4.29a19.4,19.4,0,0,1-10.11-3.29c-2.74-1.65-4.94-3.29-6.74-3.29a2.73,2.73,0,0,0-2.17,1.1c-5.27,6.3,25.61,46.77,10,46.77A15.59,15.59,0,0,1,194,737a123.66,123.66,0,0,0-32.53-4.59c-26.47,0-44.39,9.8-56.69,15.63-2.4,1.13-7.47,17.32-9.62,18.15l-.1,0c-.41,0,.09-1.51-.6-3s-2.56-3-7.78-3H86c-5.52,0-8.93-2.29-12.63-4.59s-7.7-4.58-14.34-4.58c-.68,0-1.38,0-2.11.07-13,.88-12.32,11.42-29.6,12.55-.65,0-1.3.06-2,.06-5.68,0-11.5-1.52-17.27-3s-11.52-3-17-3a23.35,23.35,0,0,0-8.41,1.43,75.31,75.31,0,0,1-28,5.32c-3.51,0-6.89-.19-10.33-.39s-7-.4-10.73-.4h-2c-4.57.09-14.26.7-25.38,1.54-3.69.27-7.52.57-11.38.87l-13,1.05c-3,.24-31.15,32.61-34.22,33.2H410c-6.85-11.12-66.58-47.14-83.55-94.9-10.17-35.54-7.58-72.85-27.45-80.84A8.49,8.49,0,0,0,295.93,623.83Z" fill="#505050"/><path d="M287.2,725.25s-.48-23.52-1-34.56-.48-25.3,1-25.3,3.9,15.68,5.85,27.08-3.91,6.75-1.95,16.39C292.11,713.87,287.2,725.25,287.2,725.25Z" fill="#807b74"/><g clip-path="url(#f45676cd-c324-418b-a229-073a3861e2de)"><path d="M159,458.75c7.19-5.29,16-9,18.07-11.07s38.37-33.66,42.62-37,20.3-10.81,35.66-16.06,20.74-8.71,21.88-8.8,9.46-1.4,11.56-1.84,7-1.46,9.86-2.94,11.47-5,11.47-5,.63-1.14,3.53.86,4.34,9.57,1.79,12S275.05,418,269.57,420.3s-35.18,19.74-42,21.9-21.74,9.5-27.43,13.6-16.74,10.65-16.74,10.65Z" fill="#ce9a8a"/><path d="M314.63,391.33c-7.3,9.9-.39,5.12-8.88,7.08s-66.09,27.41-66.09,27.41-22.9,15.58-24.38,17.64-20.27,21.66-21,22.25-8.5,4.15-8.11,2.28c6.84-32.84,48.63-63.91,77.87-72.6,30.49-9.07,17.49-7,34.26-12.68C315.8,376.81,318.36,386.27,314.63,391.33Z" fill="#9e6248" opacity="0.45"/></g><g clip-path="url(#b6f83172-2d5a-4f3a-9cbd-67446eb367f6)"><path d="M176,460.27a76.35,76.35,0,0,1,16.23-12.86c9.48-5.48,36.62-30.24,41.7-33.05s14.24-11.28,38.56-19.58,32.86-13.43,39.38-14.94,17.39-3.21,21.68-5,11.86-4.52,14.66,2.61-1.59,11.83-7.59,16.58-35.52,18.8-35.52,18.8-46.81,19.61-52.51,23.31-43.35,34.76-43.35,34.76l-13.83,5.63Z" fill="#ce9a8a"/><path d="M350.85,396.54c-8.91,10.72-.94,5.42-10.34,7.79s-74.37,31.31-74.37,31.31S239.76,452.91,238,455.13s-24.15,23.59-25,24.24-9.63,4.69-9,2.7c10.73-34.91,40.93-59.8,73.49-70,33.95-10.66,35.74-18.73,54.48-25.3C351.46,379.89,355.4,391.07,350.85,396.54Z" fill="#9e6248" opacity="0.45"/></g><g clip-path="url(#f65893d5-29da-4410-8609-504d1d6698cf)"><path d="M206.63,470.17a54.57,54.57,0,0,0,14.78-10.09,308.51,308.51,0,0,1,28.1-22c7-4.56,27.26-15.36,43.4-19.62a303.88,303.88,0,0,0,29.21-9.32s8.26-.85,11.61-2.28,11.08-7.56,15.5-6.6S364,406.05,356,416,343.58,431,334.8,432.84s-68.95,27-68.95,27-24.18,15.53-25.8,17.6-21.81,21.73-22.56,22.32-7,3.53-8.4,2.22-7.91-4.33-7.73-9.75.8-12.84,1-14.18S206.63,470.17,206.63,470.17Z" fill="#ce9a8a"/><path d="M348,434.59c-8,10-.65,5.2-9.44,7.08s-68.94,27-68.94,27-24.19,15.53-25.8,17.6S222,508,221.24,508.6s-8.9,4.11-8.41,2.22c8.63-33.25,36.1-56,66.43-64.44,31.63-8.82,33-16.54,50.4-22.07C347.83,418.54,352,429.51,348,434.59Z" fill="#9e6248" opacity="0.45"/></g><path d="M68.74,825.48s80.53-175.29,82.13-177.37a10.23,10.23,0,0,1,3.75-3s42.46-9.94,71-92.48c1.91-5.53,15.45-27.69,17.51-31.77s5.81-7,10.3-10.6,16-14.7,18.55-17.13,48.56-31.57,49.36-32.61,11-9.16,13.15-11.64,2.41-7.21,2.41-7.21-2.35-7.07-6.13-7.73-13.21,4.36-16.8,6-57,22.43-61.27,25.79-21.33,15.68-25.23,20a91.88,91.88,0,0,1-9.39,8.66l-3.36.9s.63-14.59-5.06-20.24a49.2,49.2,0,0,0-4.79-4c-7.28-5.51-18.45-12.08-23.2-12.81a103,103,0,0,0-14.63-1c-1.59,0-8.12,1.56-8.12,1.56a28.64,28.64,0,0,0-7.21,9.37c-2.71,5.81-14.42,30.54-19.79,39.67s-43.61,78.87-50.57,88S35.66,659.72,30.5,667.06-58.14,790.75-58.14,790.75Z" fill="#ce9a8a"/><g clip-path="url(#e57814fb-2f82-44cc-b167-a2e23ace17a6)"><path d="M150.87,648.11s-51,56.82-80,117.79S40,836.16,40,836.16s47.53,7.8,50.59,6.71,31.7-42.69,37.15-53.8,28.7-90.56,29.75-95.87S150.87,648.11,150.87,648.11Z" fill="#9e6248" opacity="0.45"/></g><path id="e8107d89-0a30-45e7-8c04-b9701313a416" data-name="cloud" d="M248.67,551.41c-1.87,6.06,84.24,13.65,108.57,18.2,19.59,3.66,44.73.55,74.27,3.11v-35c-28.25,0-52.21.15-79.88,1.51C320.74,540.79,250.54,545.34,248.67,551.41Z" fill="#f5f5f5"/></g><g clip-path="url(#a880665c-bbb6-457f-aac4-b7eaacffbd48)"><path d="M467.72,426.94a250.29,250.29,0,0,0-158-194.7L398,0C569.54,65.93,683.9,206.81,713.17,388.2Z" fill="#2c3788"/><g opacity="0.53" style="mix-blend-mode:overlay"><rect x="437.1" y="218.24" width="213.98" height="7.24" opacity="0.1" fill="url(#e02856f5-6570-452f-91df-0b0653155bf1)"/><rect x="436.65" y="176.15" width="278.51" height="14.17" opacity="0.5" fill="url(#bc0a37a0-966b-4ff1-a69b-1c248a280f1f)"/><rect x="226.92" y="199.25" width="354.89" height="14.17" opacity="0.5" fill="url(#e0f4192d-b628-4634-9fb6-a9f6494da634)"/><rect x="280.86" y="145.66" width="314.65" height="11.01" opacity="0.2" fill="url(#eb92e54e-8cd4-492f-b43f-10c3726ffccd)"/><rect x="291" y="48.54" width="213.98" height="7.24" transform="translate(795.97 104.33) rotate(180)" opacity="0.1" fill="url(#e4bb2763-8ad1-4565-a4b1-61026f409b32)"/><rect x="385.46" y="83.7" width="278.51" height="14.17" opacity="0.5" fill="url(#a5d68d9e-86cb-4e7a-a263-58213688d32c)"/><rect x="360.27" y="60.6" width="354.89" height="14.17" transform="translate(1075.43 135.38) rotate(180)" opacity="0.5" fill="url(#a7315cf4-afea-4b8a-a886-569da446c2d6)"/><rect x="346.56" y="117.35" width="314.65" height="11.01" transform="translate(1007.78 245.71) rotate(180)" opacity="0.2" fill="url(#f52b7f60-133c-40c3-9ded-d6b7a46ba1eb)"/><rect x="385.46" y="238.12" width="213.98" height="7.24" transform="translate(984.89 483.47) rotate(180)" opacity="0.1" fill="url(#f5e37896-01a8-424f-88d3-811e3046989f)"/><rect x="375.32" y="273.27" width="278.51" height="14.17" transform="translate(1029.15 560.71) rotate(180)" opacity="0.5" fill="url(#a83a4b2f-8343-4873-83b5-f3528960cafd)"/><rect x="454.73" y="250.18" width="354.89" height="14.17" transform="translate(1264.34 514.52) rotate(180)" opacity="0.5" fill="url(#b835b230-c75b-4352-a1f8-5fd629eafb53)"/><rect x="441.02" y="306.92" width="314.65" height="11.01" transform="translate(1196.69 624.85) rotate(180)" opacity="0.2" fill="url(#ba28a4c6-bd9a-44f8-a2b1-3a9177ec67d7)"/><rect x="531.56" y="407.81" width="213.98" height="7.24" opacity="0.1" fill="url(#b5464e6e-c930-458f-9c92-af99d9f47e18)"/><rect x="531.11" y="365.72" width="278.51" height="14.17" opacity="0.5" fill="url(#a27c3ebe-0fc7-4e82-aa34-4e6b37304f47)"/><rect x="450.64" y="389.46" width="354.89" height="9.02" opacity="0.5" fill="url(#a38a0532-7c9d-438d-8194-299133a15f96)"/><rect x="375.32" y="335.24" width="314.65" height="11.01" opacity="0.2" fill="url(#f6a2fba1-6d5c-4864-b775-6afb713cfed7)"/></g><path d="M862.61,77.8,720.71-3.47,538.88,117c-9.06,5.81-19.7,4.27-30.17,1.8-55.67-13.13-87.63,8.85-129.41-5.44l-26.25-11.66C343.7,98.6,321.72,92,331,121h0a54.93,54.93,0,0,0,39.73,27.6l20.7,3.15a19.58,19.58,0,0,1,15.37,12.4l.15.39a40.82,40.82,0,0,1-4.23,37.25L374.44,244l-28.73,26.11c-2.56,2.33-35.19,27-47,43.95-5.95,8.53-3.38,16.18,4.27,16,15.93-.36,77.89-50.92,77.89-50.92l-30.93,35.7c-4,4.13-46.21,38.83-16,42.58h0a38,38,0,0,0,21.1-7.08l2.52-1.8-.05.41c-5.3,10.75-3.16,22,18.36,13.82A71.86,71.86,0,0,0,394,352.39l49.91-38.28-28.75,28.62c-3.85,3.83-4.55,9.71-4.55,9.71.5,4.43,1.79,7.5,6.25,7.51a33.1,33.1,0,0,0,19.4-6.21L467.7,331.2q4.82-3.43,9.34-7.27l86.65-73.74a87,87,0,0,0,15.65-23.27,29.24,29.24,0,0,1,13.09-13.75Z" fill="#ce9a8a"/><path d="M406.84,164.1l.15.39a40.82,40.82,0,0,1-4.23,37.25c10.68-18.91,52.53-33.07,54.8-40,5.51-16.82-51.71-7.87-70.81-10.76l4.72.72A19.58,19.58,0,0,1,406.84,164.1Z" fill="#9e6248" opacity="0.45"/><path d="M552.09,108.5,538.88,117A30.93,30.93,0,0,1,512,120.11c5.63,3.24,22.52,12,40.93,34.68C542.25,137.72,538.54,119.84,552.09,108.5Z" fill="#9e6248" opacity="0.45"/><path d="M493.17,260.54c-8.93-3.45-16,3.09-25.29.15-4.4-1.4-8.41-3.8-12.82-5.17-4.69-1.46-9.45-1.14-14.22-2C431.47,252,426.45,244.17,418,241c-7.47-2.8-15.76,1.55-23.48.76s-11.18-4.85-11.92-10L374.44,244c6.1-4.87,13.68,12.14,6.09,23.83S346,294,339.3,310.57c9.69-6.71,19.79-14.67,19.79-14.67s18.39-13.17,30.91-25.36h0l0,0,0,0c5.73-5.79,13.75-10.6,21.78-8.24a13.08,13.08,0,0,1,3.2,1.39,7.91,7.91,0,0,1,3.54,7.34,21.86,21.86,0,0,1-3.45,10c-13.9,21.39-66.27,65.64-75.53,70.72-3.62,2-14.07,1.67-16.14-.06a11.86,11.86,0,0,0,10.49,5.8h0a38,38,0,0,0,21.1-7.08l2.52-1.8s81.91-75.42,95.22-79.71c8.66-2.79,33.14-1.63,1.7,26.68-8.57,7.72-34.1,24.8-39.91,41.06l29.29-22.47s18.66-16,31.73-27.11c6.54-5.55,20.93-18.23,31.71-13.16C531,285,563.69,250.19,563.69,250.19c.76-.8,1.49-1.62,2.21-2.45C548.79,263.83,513.05,268.24,493.17,260.54Z" fill="#9e6248" opacity="0.45"/><path d="M568.78,170.86c4.15,7.07,21.75,38.34,13.3,51.35a29.28,29.28,0,0,1,10.35-9L624,196.75C598.2,206.32,568.48,170.35,568.78,170.86Z" fill="#9e6248" opacity="0.45"/></g></g></g></g></svg>