<svg width="48" height="48" viewBox="0 0 48 48" fill="none" xmlns="http://www.w3.org/2000/svg">
<path fill-rule="evenodd" clip-rule="evenodd" d="M24 40.6667C33.2047 40.6667 40.6667 33.2047 40.6667 24C40.6667 14.7953 33.2047 7.33333 24 7.33333C14.7953 7.33333 7.33333 14.7953 7.33333 24C7.33333 33.2047 14.7953 40.6667 24 40.6667ZM24 44C35.0457 44 44 35.0457 44 24C44 12.9543 35.0457 4 24 4C12.9543 4 4 12.9543 4 24C4 35.0457 12.9543 44 24 44Z" fill="#30363D"/>
<path fill-rule="evenodd" clip-rule="evenodd" d="M24 32.6667C28.7865 32.6667 32.6667 28.7865 32.6667 24C32.6667 19.2135 28.7865 15.3333 24 15.3333C19.2135 15.3333 15.3333 19.2135 15.3333 24C15.3333 28.7865 19.2135 32.6667 24 32.6667ZM24 36C30.6274 36 36 30.6274 36 24C36 17.3726 30.6274 12 24 12C17.3726 12 12 17.3726 12 24C12 30.6274 17.3726 36 24 36Z" fill="#30363D"/>
<path fill-rule="evenodd" clip-rule="evenodd" d="M22.3334 14V6H25.6667V14H22.3334Z" fill="#30363D"/>
<path fill-rule="evenodd" clip-rule="evenodd" d="M22.3334 42V34H25.6667V42H22.3334Z" fill="#30363D"/>
<path fill-rule="evenodd" clip-rule="evenodd" d="M34 22.3333L42 22.3333L42 25.6667L34 25.6667L34 22.3333Z" fill="#30363D"/>
</svg>
