<svg width="246" height="33" viewBox="0 0 246 33" fill="none" xmlns="http://www.w3.org/2000/svg">
<path fill-rule="evenodd" clip-rule="evenodd" d="M175.671 11.311C175.588 11.3643 172.192 11.2265 168.125 11.005C164.058 10.7832 159.307 10.5642 157.568 10.5178C152.913 10.3937 151.817 10.3286 151.494 10.1565C151.334 10.0711 151.132 10.0469 151.044 10.1026C150.84 10.2331 147.808 10.1742 142.112 9.92929C139.616 9.82207 137.469 9.77331 137.343 9.82123C137.215 9.86913 135.958 9.8954 134.548 9.87957C133.138 9.86374 131.939 9.92771 131.882 10.0217C131.826 10.1157 131.503 10.101 131.165 9.98893C130.615 9.80709 129.877 9.74413 128.329 9.74745C127.984 9.74816 127.885 9.86284 128 10.1283C128.156 10.482 128.133 10.4799 127.672 10.0976C127.266 9.76051 126.887 9.69181 125.554 9.71253C124.66 9.72643 123.318 9.68688 122.569 9.62449C121.729 9.55451 121.203 9.60198 121.194 9.74838C121.183 9.90737 120.875 9.91508 120.256 9.77209C119.749 9.65459 119.205 9.5598 119.046 9.5616C118.888 9.56319 117.789 9.52103 116.605 9.46786C115.42 9.41469 114.33 9.41188 114.183 9.4612C113.857 9.57011 112.975 9.57864 109.404 9.50716C107.901 9.47713 106.282 9.46554 105.806 9.48103C103.732 9.54931 101.329 9.54477 99.3285 9.46868C98.1437 9.4237 96.4575 9.45059 95.5815 9.52823C93.9531 9.67273 90.4482 9.67915 88.6947 9.54076C88.1567 9.49827 87.603 9.57898 87.464 9.71998C87.2585 9.92839 87.2139 9.92467 87.2246 9.70053C87.2372 9.44193 86.5641 9.40907 84.35 9.55966C82.687 9.67304 81.0952 9.72414 79.7334 9.70825C78.863 9.69831 77.4379 9.69626 76.5664 9.70397C75.6948 9.71188 74.1404 9.70487 73.1121 9.68855C72.0838 9.67222 71.2416 9.67191 71.2406 9.68766C71.2386 9.71853 70.7971 9.77316 69.6834 9.88062C69.3064 9.91705 68.009 9.94348 66.8002 9.93956C64.4313 9.9317 63.4493 9.95148 63.4457 10.0069C63.4445 10.0262 62.6664 10.0358 61.7167 10.0281C58.9574 10.006 57.7898 10.0328 56.0937 10.1567C55.2185 10.2207 53.7892 10.284 52.9173 10.2973C52.0454 10.3109 50.8219 10.3297 50.1982 10.3392C49.5748 10.3488 48.9334 10.4403 48.7733 10.5424C48.5854 10.6623 48.2993 10.6424 47.9661 10.4864C47.6288 10.3284 47.2635 10.3042 46.9128 10.4161C46.6173 10.5105 45.6744 10.563 44.8177 10.5326C43.9608 10.5023 42.9315 10.5454 42.5302 10.6281C42.129 10.711 41.3474 10.7752 40.7934 10.7709C38.4244 10.7518 36.3007 10.8659 35.9794 11.0293C35.7627 11.1397 35.5742 11.1248 35.4744 10.9893C35.3708 10.8496 34.9832 10.8241 34.3737 10.9171C33.8558 10.9961 32.7343 11.0617 31.8811 11.0628C31.0276 11.0636 30.2124 11.1087 30.069 11.163C29.9259 11.217 29.2601 11.2665 28.59 11.273C26.8817 11.2898 25.8205 11.3503 24.4775 11.5073C23.8392 11.5819 23.0946 11.5777 22.8225 11.498C22.5503 11.4182 22.3227 11.4301 22.3163 11.5246C22.3096 11.6189 21.9313 11.6816 21.4749 11.664C21.0188 11.6461 20.4007 11.6885 20.102 11.7581C19.8029 11.8276 18.8871 11.8615 18.0666 11.8333C17.2464 11.8051 16.3935 11.8768 16.1715 11.9929C15.9495 12.1091 15.5156 12.1927 15.207 12.1791C13.4134 12.0993 11.8603 12.1605 11.5374 12.3238C11.3341 12.4269 10.744 12.5498 10.2264 12.597C9.70849 12.6442 9.28037 12.7463 9.27481 12.8235C9.26895 12.901 8.84424 12.9592 8.33068 12.9529C6.7503 12.9334 6.2359 13.0249 6.30924 13.312C6.3605 13.5128 6.28164 13.5212 6.01932 13.3427C5.51592 13.0002 3.94656 13.1135 3.21761 13.545C2.88203 13.7436 2.39877 13.8925 2.14356 13.8761C1.51588 13.8356 -0.168511 14.9245 0.210085 15.1261C0.370974 15.212 0.413035 15.4572 0.303342 15.6714C0.082973 16.1016 0.35809 16.6531 0.660046 16.3866C0.765065 16.294 1.14901 16.118 1.51308 15.9955C2.09702 15.7991 2.17227 15.8198 2.14968 16.1701C2.13529 16.3934 2.37725 16.633 2.70208 16.7172C3.1889 16.8435 3.25376 16.7932 3.11268 16.4001C3.02041 16.1432 2.74606 15.7941 2.50275 15.6245C2.11591 15.3542 2.14933 15.3361 2.77007 15.4797C3.16018 15.5698 3.57187 15.651 3.68533 15.6598C3.79849 15.6688 3.80761 15.813 3.70583 15.9805C3.60376 16.1479 3.66315 16.2941 3.83777 16.3053C4.0124 16.3166 4.1611 16.2342 4.16832 16.1223C4.17553 16.0105 4.38415 15.9902 4.6322 16.0775C4.87995 16.1648 5.20559 16.1115 5.35533 15.9594C5.57719 15.7339 5.62417 15.7467 5.60977 16.0279C5.59982 16.218 5.81328 16.4576 6.08364 16.5604C6.82165 16.8413 8.98438 16.9166 9.44209 16.6773C9.74514 16.5188 9.9517 16.5572 10.2825 16.8342C10.6366 17.1303 10.725 17.1438 10.7405 16.9036C10.751 16.7399 11.0168 16.4584 11.3314 16.2781C11.8872 15.959 11.8948 15.9711 11.6118 16.7157C11.3936 17.2907 11.42 17.5641 11.7178 17.8134C12.2503 18.2588 12.9672 18.076 13.0109 17.4834C13.0352 17.1555 13.1146 17.0944 13.2624 17.2893C13.3882 17.4548 13.6953 17.5279 13.9958 17.464C14.2801 17.4035 14.5917 17.4607 14.6881 17.5911C14.8867 17.8602 17.0302 17.5996 17.0493 17.304C17.0553 17.2099 16.9414 17.1779 16.7962 17.2327C16.6507 17.2876 16.4662 17.1842 16.3854 17.0029C16.2662 16.7345 16.3414 16.7214 16.7919 16.9323C17.0957 17.0746 17.3487 17.1259 17.3538 17.0461C17.359 16.9665 17.6102 17.089 17.9122 17.3183C18.406 17.6936 18.4634 17.7004 18.4835 17.3879C18.4959 17.1968 18.6995 17.0528 18.9361 17.068C19.1726 17.0833 19.6599 16.9084 20.019 16.6793C20.4424 16.4093 20.6033 16.3753 20.477 16.583C20.1994 17.0383 20.5052 17.2036 21.0187 16.8758C21.5899 16.5117 21.9929 16.5493 21.9661 16.9645C21.9543 17.1475 22.1088 17.2656 22.3091 17.2271C22.5097 17.1886 22.6535 16.9401 22.6291 16.6751C22.5902 16.2483 22.6374 16.2298 23.0427 16.5134C23.4562 16.8027 23.4916 16.7674 23.4083 16.1481C23.3349 15.5994 23.3888 15.5131 23.6783 15.7159C23.8963 15.8683 23.9579 16.1671 23.8329 16.4672C23.6397 16.9307 23.6968 16.9663 24.6578 16.9808C25.6963 16.9965 26.1214 16.7179 25.8817 16.1787C25.8106 16.0187 25.9477 15.7858 26.1864 15.661C26.546 15.4731 26.6456 15.5455 26.7708 16.0867C26.8855 16.5847 27.0784 16.7494 27.5846 16.7821C28.2951 16.8279 28.7472 16.3981 28.3437 16.0606C28.1992 15.9397 28.3505 15.7594 28.7127 15.6212C29.0501 15.4924 29.2344 15.483 29.1218 15.6001C29.0017 15.7251 29.1548 15.8288 29.4903 15.8504C29.8057 15.8708 30.1496 15.798 30.2545 15.6888C30.6416 15.2856 30.99 15.5399 30.771 16.0659C30.6006 16.4748 30.6445 16.589 30.9512 16.5358C31.1739 16.4972 31.4119 16.2224 31.48 15.9252C31.6049 15.3811 32.3466 14.8194 32.6288 15.0554C32.7124 15.1251 32.5462 15.4128 32.2597 15.6943C31.9464 16.0023 31.8659 16.2145 32.0583 16.2269C32.2341 16.2383 32.3828 16.1732 32.3887 16.0822C32.3946 15.9913 32.7974 15.9203 33.2834 15.9244C33.8259 15.9292 34.0924 16.0105 33.9727 16.135C33.6742 16.4459 34.2668 16.4098 34.6775 16.0919C34.8766 15.9377 35.2077 15.8707 35.413 15.943C35.6182 16.015 35.8662 15.9908 35.9644 15.8887C36.0622 15.7868 36.4502 15.7667 36.8265 15.8443C37.2027 15.9219 37.6043 15.8877 37.7191 15.7681C37.987 15.4891 39.9057 15.6063 39.8868 15.9005C39.8789 16.0228 40.0194 16.0675 40.1991 15.9998C40.4326 15.9117 40.4292 15.8252 40.1879 15.6966C39.7213 15.448 40.2829 15.2539 41.7626 15.1521C42.5981 15.0944 43.0257 15.161 43.3014 15.3916C43.835 15.8379 44.3103 15.8249 44.1113 15.3696C43.9593 15.0213 43.9821 15.0202 44.3875 15.3556C44.902 15.781 45.9419 15.7599 46.7517 15.3077C47.5157 14.8809 48.1319 14.842 47.8922 15.2357C47.7876 15.4078 47.8269 15.5565 47.9795 15.5663C48.1323 15.5762 48.2641 15.4792 48.2724 15.3509C48.2822 15.1978 48.6302 15.1873 49.2821 15.32C50.1458 15.4959 50.2804 15.4681 50.3036 15.1083C50.3317 14.6725 51.7913 13.8093 52.0706 14.0634C52.1598 14.1446 52.0691 14.243 51.8685 14.2817C51.6682 14.3207 51.493 14.5247 51.4794 14.7354C51.4459 15.2541 52.4491 15.1242 52.8458 14.5584L53.142 14.136L53.6977 14.6008C54.1982 15.0195 54.3309 15.0416 55.0309 14.8235C55.7105 14.6119 55.8057 14.6218 55.7876 14.9031C55.7759 15.0848 56.0163 15.2409 56.3403 15.2618C56.6558 15.2822 56.9199 15.2043 56.9274 15.0888C56.9348 14.9733 57.2635 14.8995 57.6578 14.925C58.0521 14.9504 58.3814 14.8666 58.3896 14.7387C58.3979 14.6108 58.5789 14.5676 58.792 14.6425C59.0254 14.7246 59.1732 14.6473 59.1645 14.4476C59.1556 14.2471 59.4061 14.1173 59.799 14.1186C60.3961 14.1206 60.4141 14.1545 60.0231 14.5384C59.6308 14.924 59.6508 14.9579 60.2789 14.9784C60.6536 14.9903 61.05 14.9429 61.1598 14.873C61.2698 14.8029 61.5122 14.8523 61.6984 14.9826C62.1544 15.3018 63.6371 14.9159 63.4626 14.5236C63.3082 14.1757 63.663 14.1706 64.0744 14.5147C64.2881 14.6934 64.5406 14.7108 64.9631 14.5758C65.4226 14.4291 65.5848 14.4586 65.6962 14.7089C65.7746 14.8859 66.077 15.0461 66.3681 15.0648C67.1153 15.113 68.6299 14.0536 68.4363 13.6181C68.3393 13.3992 68.3931 13.3278 68.5805 13.4276C68.745 13.5154 68.8008 13.7702 68.7043 13.9941C68.4944 14.4804 68.6876 15.0035 69.0862 15.0292C69.2439 15.0394 69.3078 14.9011 69.2281 14.722C69.0659 14.357 69.7907 14.3113 70.0555 14.6699C70.1455 14.7917 70.4379 14.8978 70.7051 14.906C71.0043 14.915 71.0561 14.8711 70.8395 14.7917C70.6462 14.7206 70.5103 14.4583 70.5373 14.2089C70.5852 13.7695 70.5939 13.7688 70.8062 14.191C70.927 14.4308 71.0426 14.5039 71.0635 14.3533C71.0842 14.2028 71.2266 14.1464 71.3797 14.228C71.5328 14.3096 71.6701 14.2528 71.685 14.1019C71.7012 13.9359 71.8718 14.0041 72.117 14.2745C72.4649 14.658 72.564 14.6794 72.815 14.425C72.9759 14.262 73.0585 14.0115 72.9981 13.8686C72.9352 13.7188 73.0523 13.6662 73.275 13.7445C73.7345 13.9064 74.0236 14.4641 73.7794 14.7181C73.5523 14.9548 73.9892 14.9748 74.9545 14.7719C75.4671 14.6641 75.6839 14.4982 75.5894 14.2856C75.5104 14.1082 75.5711 13.971 75.7236 13.9808C75.8765 13.9907 75.9958 14.0874 75.9888 14.1958C75.9609 14.6274 77.2034 14.3814 77.4955 13.8975C77.7431 13.4876 77.8478 13.4528 78.0454 13.7159C78.1792 13.8945 78.2048 14.2085 78.1014 14.4134C77.9376 14.739 78.036 14.7768 78.8807 14.7117C79.4125 14.6707 80.0759 14.6534 80.3554 14.6729C80.6346 14.6925 80.7939 14.6149 80.7094 14.5004C80.6247 14.3861 80.746 14.3047 80.9788 14.3197C81.2113 14.3347 81.4486 14.4685 81.5055 14.6173C81.5864 14.8282 81.7178 14.8312 82.103 14.631C82.3747 14.4899 82.8546 14.4411 83.1696 14.5228C83.4848 14.6045 83.9344 14.5491 84.1686 14.3995C84.4301 14.2327 84.6572 14.2127 84.757 14.3476C84.9782 14.6468 86.2913 14.6309 86.6874 14.3244C86.9311 14.1358 86.8593 14.0662 86.3899 14.0359C85.8341 14.0001 85.8106 13.9505 86.1577 13.5464C86.4917 13.1577 86.5551 13.1475 86.6258 13.4711C86.6704 13.6771 86.9468 13.8609 87.2393 13.8798C87.5317 13.8986 87.9337 14.0496 88.1324 14.2154C88.3321 14.382 89.2629 14.589 90.2171 14.679C91.6953 14.8184 92.0632 14.7753 92.7993 14.3756C93.5841 13.9496 94.6476 13.9334 94.2439 14.3536C94.15 14.4513 94.199 14.5395 94.353 14.5494C94.5067 14.5593 94.7053 14.4534 94.7943 14.3142C94.9234 14.1117 94.957 14.1138 94.9615 14.325C94.9703 14.7377 96.8898 14.7811 97.2424 14.3766C97.4837 14.0998 97.6153 14.0901 97.9517 14.3257C98.2823 14.5571 98.3983 14.5624 98.5318 14.3532C98.6481 14.1709 98.766 14.165 98.9209 14.334C99.0431 14.4674 99.5952 14.5979 100.148 14.624C100.997 14.6642 101.144 14.6024 101.099 14.2258C101.069 13.9807 101.259 13.6679 101.522 13.5307C101.943 13.3106 101.973 13.343 101.779 13.8084C101.654 14.1084 101.689 14.4043 101.86 14.4957C102.026 14.5838 102.168 14.5527 102.176 14.4264C102.185 14.2928 102.518 14.2578 102.973 14.3426C103.404 14.4227 103.755 14.504 103.754 14.5229C103.752 14.5418 104.12 14.6258 104.571 14.7093C105.294 14.8433 105.375 14.8071 105.259 14.4006C105.136 13.973 105.162 13.9664 105.61 14.3068C106.211 14.7636 106.758 14.8136 106.784 14.4144C106.795 14.2478 106.959 14.0532 107.149 13.9815C107.381 13.894 107.427 13.9619 107.288 14.1889C107.137 14.4375 107.241 14.5368 107.682 14.5653C108.159 14.596 108.218 14.5402 107.973 14.2941C107.725 14.045 107.807 13.9933 108.387 14.0307C108.809 14.0579 109.101 14.1975 109.091 14.3661C109.066 14.753 109.537 14.765 109.769 14.3835C109.871 14.2161 110.12 14.0973 110.321 14.1194C110.608 14.151 110.608 14.1776 110.322 14.2424C110.121 14.2881 109.951 14.4153 109.944 14.5253C109.936 14.6434 110.171 14.6484 110.519 14.5373C110.843 14.434 111.102 14.4267 111.096 14.5212C111.07 14.9259 112.661 14.8545 113.595 14.409C114.549 13.9538 114.588 13.9521 114.561 14.3654C114.526 14.9075 115.518 15.0162 115.968 14.5196C116.144 14.3261 116.28 14.2879 116.276 14.434C116.271 14.5866 116.641 14.7212 117.158 14.7546C117.773 14.7942 118.01 14.7241 117.924 14.5291C117.76 14.1619 119.765 14.1688 120.036 14.5365C120.142 14.6789 120.382 14.7376 120.57 14.6664C120.82 14.5722 120.832 14.4566 120.616 14.2393C120.439 14.0611 120.43 13.8996 120.595 13.8373C120.747 13.78 120.929 13.9366 121 14.185L121.13 14.6367L122.009 14.2478C123.039 13.7924 123.361 13.7716 123.115 14.1758C123.017 14.3362 123.089 14.523 123.273 14.5912C123.458 14.6596 123.357 14.7067 123.049 14.6959C122.707 14.684 122.59 14.7566 122.749 14.8816C122.892 14.9943 123.428 15.066 123.939 15.0408C124.679 15.0041 124.862 14.9022 124.835 14.5411C124.815 14.2732 124.946 14.1183 125.156 14.163C125.351 14.2047 125.521 14.1207 125.532 13.9764C125.547 13.8016 125.64 13.8251 125.811 14.0471C125.953 14.2302 126.079 14.2858 126.091 14.1706C126.104 14.0554 126.214 14.0935 126.337 14.2552C126.46 14.4168 127.089 14.6359 127.736 14.7417C128.731 14.9048 129.009 14.8632 129.538 14.473C130.104 14.0552 130.145 14.0509 129.977 14.4287C129.839 14.7396 129.937 14.8669 130.362 14.9281C131.257 15.0567 131.867 15.0909 132.8 15.0653C133.276 15.0521 134.054 15.0485 134.528 15.0574C135.315 15.0718 135.348 15.0455 134.901 14.7579C134.437 14.4594 134.442 14.4385 134.998 14.3687C135.377 14.3212 135.579 14.3972 135.567 14.5838C135.556 14.7499 135.728 14.8344 135.972 14.7824C136.205 14.7329 136.549 14.7736 136.735 14.873C136.922 14.9725 137.602 15.0696 138.247 15.0888C138.892 15.108 140.033 15.1422 140.784 15.1648C141.65 15.191 142.155 15.1101 142.166 14.9435C142.176 14.7835 142.575 14.7062 143.187 14.7457C143.739 14.7813 144.184 14.9106 144.176 15.0328C144.168 15.1551 144.3 15.203 144.47 15.1391C144.639 15.0751 144.955 15.1474 145.173 15.2996C145.447 15.491 145.817 15.5318 146.376 15.4316C146.819 15.352 147.678 15.3574 148.283 15.4434C149.06 15.5538 149.329 15.5252 149.196 15.3465C149.081 15.1908 149.178 15.1295 149.448 15.188C149.689 15.2403 150.106 15.1075 150.374 14.8928C150.856 14.5079 150.859 14.5088 150.654 14.9636C150.505 15.2942 150.569 15.4326 150.879 15.4526C151.117 15.468 151.403 15.385 151.515 15.2684C151.627 15.1516 151.896 15.1185 152.113 15.1947C152.331 15.2717 152.515 15.2061 152.525 15.0475C152.56 14.5056 153.405 14.5587 153.854 15.1309C154.213 15.5888 154.49 15.6906 155.432 15.7106C156.075 15.7242 156.648 15.6146 156.742 15.4597C156.834 15.3083 157.099 15.2514 157.331 15.333C157.563 15.4146 157.96 15.3744 158.213 15.2437C158.61 15.0396 158.647 15.0709 158.477 15.4681C158.369 15.722 158.319 15.9324 158.364 15.9353C158.656 15.9541 160.119 15.3957 160.343 15.1805C160.513 15.0162 160.534 15.1234 160.399 15.4711L160.185 16.0221L162.698 16.1032C164.08 16.1476 165.345 16.0986 165.509 15.9941C165.673 15.8895 165.908 15.4575 166.031 15.0341C166.154 14.6107 166.419 14.2351 166.62 14.1996C166.901 14.1498 166.908 14.2627 166.651 14.6881C166.468 14.9922 166.378 15.2919 166.452 15.3538C166.526 15.4157 166.446 15.6348 166.275 15.8403C166.033 16.1301 166.062 16.2208 166.403 16.2428C166.645 16.2584 166.849 16.1825 166.856 16.0741C166.863 15.9657 167.094 15.902 167.369 15.9326C167.644 15.963 168.15 15.9389 168.494 15.8792C168.868 15.8142 169.266 15.8885 169.489 16.0655C170.09 16.5425 170.974 16.4793 171.377 15.9308L171.746 15.4273L171.731 16.0133C171.717 16.5964 171.724 16.5992 173.372 16.6042C174.283 16.607 175.632 16.6434 176.371 16.6852C177.489 16.7484 177.752 16.6873 177.94 16.3196C178.141 15.9274 178.194 15.9192 178.412 16.246C178.603 16.5328 178.783 16.5735 179.229 16.431C179.623 16.3056 179.797 16.3164 179.788 16.4658C179.78 16.5853 179.967 16.6956 180.204 16.7109C180.44 16.7261 180.628 16.8296 180.621 16.9407C180.6 17.2626 185.966 17.403 186.556 17.0958C186.966 16.8831 187.075 16.8878 187.165 17.1225C187.246 17.3316 187.485 17.2903 188.055 16.969C188.485 16.7271 188.649 16.6856 188.421 16.8768C187.908 17.3074 188.181 17.5921 188.799 17.2693C189.168 17.0761 189.251 17.0857 189.244 17.3208C189.237 17.5148 189.379 17.4858 189.678 17.2318C189.922 17.024 190.204 16.9221 190.303 17.0051C190.402 17.0882 190.677 17.004 190.912 16.818C191.226 16.5702 191.376 16.5529 191.473 16.7534C191.546 16.9038 191.76 16.9807 191.948 16.9238C192.136 16.8672 191.97 16.9847 191.579 17.185C191.121 17.4199 190.978 17.6075 191.177 17.7133C191.347 17.8036 191.786 17.6558 192.153 17.3846C192.863 16.8611 193.756 16.7521 193.469 17.2242C193.301 17.499 193.71 18.0036 194.121 18.0301C194.236 18.0376 194.401 17.8346 194.488 17.5792C194.642 17.125 194.649 17.1246 194.817 17.5619C194.973 17.9678 195.191 18.018 197.194 18.106C198.407 18.1593 199.433 18.1852 199.474 18.1636C199.699 18.0442 202.089 18.2354 202.66 18.4184C203.087 18.5553 203.486 18.5509 203.762 18.4063C204.05 18.2559 204.256 18.2562 204.375 18.407C204.705 18.8255 205.79 18.9655 206.199 18.6423C206.532 18.3791 206.514 18.3488 206.078 18.4387C205.762 18.5041 205.574 18.4441 205.585 18.2803C205.615 17.8104 206.686 17.9947 206.838 18.4959C206.957 18.8887 207.03 18.9167 207.283 18.668C207.449 18.5047 207.581 18.4792 207.575 18.6115C207.558 18.9713 208.374 19.1874 208.998 18.9882C209.313 18.8873 209.609 18.8968 209.693 19.0107C209.868 19.2481 212.167 19.3364 212.723 19.1269C212.983 19.0286 213.042 19.0553 212.896 19.2069C212.755 19.3538 212.912 19.4466 213.339 19.4683C213.975 19.5004 215.996 19.8033 215.992 19.8659C215.991 19.8827 216.601 19.9653 217.348 20.0497C218.095 20.1341 218.71 20.1424 218.716 20.0681C218.721 19.994 219.306 19.9621 220.016 19.9978C220.966 20.0451 221.301 20.1429 221.287 20.3678C221.274 20.5675 221.463 20.6487 221.834 20.6024C222.145 20.5632 222.454 20.6432 222.519 20.7801C222.585 20.917 222.66 20.8575 222.686 20.648C222.729 20.3015 222.772 20.2995 223.162 20.626C223.567 20.9643 223.854 21.0281 225.982 21.2533C226.454 21.3034 227.116 21.427 227.451 21.5282C227.787 21.6296 228.148 21.6227 228.253 21.5132C228.375 21.3867 228.691 21.4001 229.12 21.5499C229.59 21.7142 229.842 21.7121 229.951 21.5428C230.037 21.4091 230.107 21.4657 230.106 21.6688C230.105 21.8718 230.201 22.0476 230.32 22.0597C231.222 22.1514 232.9 22.5093 233.302 22.6959C233.7 22.8809 233.798 22.8342 233.826 22.4433C233.855 22.0567 233.912 22.0283 234.119 22.2967C234.332 22.5708 234.381 22.5772 234.401 22.3323C234.414 22.1688 234.502 22.1001 234.597 22.1794C234.692 22.2587 235.017 22.2448 235.319 22.1483C235.951 21.9461 235.967 21.9849 235.541 22.691C235.295 23.098 235.315 23.2174 235.633 23.2379C235.856 23.2523 236.121 23.1787 236.221 23.0742C236.426 22.8609 237.276 23.0939 237.552 23.439C237.651 23.5627 238.077 23.7208 238.5 23.7898C238.923 23.859 239.444 24.0621 239.658 24.2415C239.972 24.5041 240.16 24.5249 240.624 24.3479C240.941 24.227 241.204 24.0647 241.209 23.9872C241.221 23.7934 241.805 23.9211 242.558 24.2819C243.036 24.5115 243.19 24.5239 243.202 24.3334C243.212 24.1839 243.439 24.2515 243.769 24.502C244.585 25.1222 244.799 24.778 244.18 23.8395C243.763 23.2064 243.708 22.8994 243.942 22.5121C244.152 22.1653 244.148 21.9772 243.931 21.9092C243.758 21.8548 243.508 21.5668 243.378 21.2693C243.247 20.9719 242.895 20.6651 242.596 20.5876C242.298 20.5101 241.997 20.3216 241.929 20.1688C241.794 19.8648 236.61 18.3015 236.129 18.4199C236.067 18.4352 235.924 18.3231 235.811 18.1707C235.699 18.0186 234.412 17.6507 232.952 17.3534C231.493 17.056 229.979 16.7367 229.589 16.6437C229.199 16.5506 228.174 16.3761 227.311 16.2561C226.447 16.1359 225.494 15.9677 225.193 15.8823C224.892 15.7966 223.929 15.6525 223.054 15.5619C222.179 15.4711 221.145 15.3139 220.755 15.2125C220.366 15.111 218.953 14.9248 217.615 14.7984C216.277 14.6721 215.183 14.5551 215.184 14.5387C215.185 14.5224 214.64 14.437 213.973 14.3493C213.229 14.2515 212.753 14.2774 212.744 14.4158C212.735 14.5689 212.606 14.5551 212.346 14.373C212.135 14.225 210.917 14.0215 209.639 13.9207C208.362 13.8198 207.321 13.6847 207.325 13.6205C207.329 13.5564 205.237 13.3435 202.677 13.1474C200.116 12.9514 197.827 12.7743 197.591 12.7538C197.355 12.7333 196.321 12.6962 195.293 12.671C194.265 12.6459 193.105 12.5456 192.716 12.4481C192.326 12.3506 191.584 12.3125 191.066 12.363C190.548 12.4137 190.129 12.377 190.135 12.2813C190.141 12.1855 189.788 12.1368 189.35 12.1729C188.228 12.2652 178.16 11.651 176.882 11.4123C176.299 11.3035 175.755 11.258 175.671 11.311ZM200.753 17.2385C200.75 17.3216 200.565 17.3256 200.343 17.2473C200.12 17.1691 200.022 16.9678 200.124 16.8002C200.275 16.5524 200.351 16.5508 200.534 16.7914C200.657 16.9542 200.756 17.1552 200.753 17.2385ZM145.744 13.3815C145.751 13.4688 145.788 13.7092 145.828 13.9153C145.868 14.1214 145.802 14.2371 145.68 14.1725C145.348 13.9957 145.174 13.1866 145.472 13.2058C145.615 13.215 145.737 13.2942 145.744 13.3815ZM178.989 15.4601C178.985 15.5111 178.85 15.6028 178.687 15.664C178.525 15.7253 178.399 15.6751 178.407 15.5529C178.415 15.4307 178.55 15.3388 178.708 15.349C178.866 15.3591 178.992 15.409 178.989 15.4601ZM167.614 15.4772C167.704 15.599 167.641 15.6899 167.474 15.6791C167.307 15.6683 167.176 15.565 167.184 15.4495C167.191 15.334 167.254 15.2431 167.324 15.2476C167.394 15.2521 167.524 15.3554 167.614 15.4772ZM142.504 14.162C142.501 14.213 142.366 14.3047 142.203 14.3659C142.041 14.4272 141.915 14.377 141.922 14.2548C141.93 14.1326 142.066 14.0407 142.224 14.0509C142.381 14.061 142.508 14.1109 142.504 14.162ZM144.145 14.3021C144.045 14.3657 143.797 14.3573 143.594 14.2833C143.37 14.2015 143.441 14.1562 143.776 14.1676C144.079 14.1781 144.245 14.2385 144.145 14.3021ZM145.221 14.455C145.311 14.5768 145.176 14.663 144.921 14.6466C144.665 14.6301 144.542 14.5273 144.647 14.4181C144.752 14.3088 144.887 14.2226 144.948 14.2265C145.008 14.2304 145.131 14.3332 145.221 14.455ZM148.233 14.6246C148.227 14.7267 147.927 14.8451 147.568 14.8878C146.938 14.9625 146.935 14.956 147.492 14.6964C148.164 14.3831 148.249 14.3747 148.233 14.6246ZM137.903 14.0762C137.9 14.1272 137.764 14.2189 137.602 14.2801C137.439 14.3413 137.313 14.2912 137.321 14.169C137.329 14.0467 137.464 13.9549 137.622 13.965C137.78 13.9752 137.906 14.0251 137.903 14.0762ZM124.619 13.4649C124.519 13.5285 124.272 13.5201 124.069 13.446C123.844 13.3643 123.915 13.3189 124.25 13.3303C124.553 13.3408 124.719 13.4013 124.619 13.4649ZM127.712 14.4202C127.609 14.5817 127.545 14.5275 127.547 14.2819C127.549 14.0598 127.624 13.9402 127.715 14.0161C127.806 14.0919 127.804 14.2739 127.712 14.4202ZM228.446 20.9817C228.411 21.5102 227.962 21.4576 227.937 20.9221C227.922 20.6193 228.028 20.4592 228.188 20.5441C228.34 20.6252 228.456 20.8221 228.446 20.9817ZM109.297 13.4039C109.387 13.5258 109.323 13.6166 109.157 13.6058C108.99 13.5951 108.859 13.4917 108.866 13.3762C108.874 13.2607 108.937 13.1698 109.006 13.1743C109.076 13.1788 109.206 13.2821 109.297 13.4039ZM125.105 14.5396C125.182 14.7126 125.36 14.8616 125.501 14.8707C125.914 14.8973 125.819 14.5253 125.373 14.3685C125.101 14.2725 125.012 14.3292 125.105 14.5396ZM237.01 21.7653C236.671 22.0274 236.683 22.1125 237.084 22.3077C237.753 22.6339 237.681 23.0233 237.01 22.7087C236.723 22.5742 236.381 22.5252 236.251 22.5997C236.121 22.6742 236.111 22.5677 236.229 22.3627C236.346 22.1579 236.451 21.8561 236.462 21.6922C236.473 21.5284 236.69 21.4079 236.946 21.4244C237.34 21.4498 237.35 21.5023 237.01 21.7653ZM93.8216 13.0784C93.7194 13.2399 93.6546 13.1858 93.6566 12.9402C93.6586 12.718 93.7342 12.5985 93.8249 12.6743C93.9156 12.7502 93.9143 12.9321 93.8216 13.0784ZM231.573 21.5928C231.57 21.6438 231.435 21.7355 231.272 21.7967C231.11 21.858 230.984 21.8078 230.992 21.6856C230.999 21.5634 231.135 21.4715 231.293 21.4817C231.45 21.4918 231.577 21.5417 231.573 21.5928ZM232.426 21.7657C232.419 21.8812 232.284 21.9674 232.126 21.9572C231.968 21.947 231.845 21.8442 231.853 21.7287C231.86 21.6132 231.995 21.527 232.153 21.5371C232.311 21.5473 232.434 21.6501 232.426 21.7657ZM93.0413 13.1994C93.0264 13.4304 92.8972 13.6119 92.7544 13.6027C92.6113 13.5935 92.5742 13.4013 92.6714 13.1755C92.7689 12.9498 92.8981 12.7683 92.9586 12.7722C93.0188 12.7761 93.0562 12.9683 93.0413 13.1994ZM94.7618 13.3103C94.7543 13.4258 94.6914 13.5167 94.6218 13.5122C94.5521 13.5077 94.4217 13.4044 94.3316 13.2826C94.2416 13.1608 94.3048 13.0699 94.4716 13.0807C94.6385 13.0915 94.7692 13.1948 94.7618 13.3103ZM92.0605 13.5976C91.9583 13.7591 91.8935 13.7049 91.8955 13.4594C91.8975 13.2372 91.9731 13.1176 92.0638 13.1935C92.1545 13.2694 92.1532 13.4513 92.0605 13.5976ZM240.642 23.8421C240.632 23.9962 240.431 24.1098 240.194 24.0945C239.741 24.0653 239.647 23.8728 239.982 23.659C240.314 23.4476 240.662 23.544 240.642 23.8421ZM53.0437 14.8525C52.9316 14.9688 52.8987 15.1133 52.9703 15.1732C53.0419 15.233 53.1863 15.1411 53.2913 14.9688C53.509 14.6112 53.348 14.5355 53.0437 14.8525ZM24.6855 15.7973C24.4702 15.9346 24.3357 15.9384 24.3442 15.8069C24.3519 15.6874 24.4483 15.5323 24.5585 15.4622C24.6684 15.3918 24.8222 15.3874 24.8998 15.4525C24.9774 15.5174 24.881 15.6726 24.6855 15.7973ZM8.49188 16.0524C8.48907 16.0959 8.25273 16.2469 7.96637 16.3876C7.49476 16.6194 7.4852 16.6114 7.8631 16.3013C8.26044 15.9755 8.50302 15.8796 8.49188 16.0524ZM12.6516 17.2955C12.5742 17.7549 12.119 17.8525 12.1479 17.4037C12.1641 17.1531 12.4384 16.8599 12.6443 16.8732C12.687 16.876 12.6903 17.066 12.6516 17.2955Z" fill="white"/>
</svg>
