<svg width="916" height="332" viewBox="0 0 916 332" fill="none" xmlns="http://www.w3.org/2000/svg">
<path d="M280 201C280 201 310.731 187.526 323.954 189.377C332.89 190.632 344.01 180.683 347.846 176.928C348.81 175.983 349.992 175.304 351.286 174.953C353.817 174.267 357.939 173.214 359.394 173.203C372.676 173.132 376.557 161.203 392.519 157.674C416.925 152.282 461.877 159.704 473.984 138.519C491.463 107.949 505.516 120.707 542.254 85.0826C562.705 65.2441 571.56 55.4875 595.687 51.4743C626.026 46.4334 632.101 32.1075 634.134 29.2944C636.174 26.4813 659.175 -15.5857 667.389 6.2722C675.603 28.1301 708.448 79.7162 725.778 84.8286C743.115 89.9411 758.169 99.7042 766.377 108.069C774.585 116.434 778.241 126.802 792.375 135.098C806.516 143.394 844.378 153.635 852.593 167.567C860.801 181.5 901.742 186.479 916 201H280Z" fill="#285F37"/>
<path d="M636.069 66C631.45 66 632.239 75.3731 625.562 76.7993C621.638 77.6376 624.697 99.1097 624.175 100.517C624.107 100.692 624.001 100.776 623.858 100.776C622.876 100.776 620.301 96.3934 619.885 91.0102C619.792 89.7985 619.605 89.3335 619.313 89.3335C618.417 89.3335 616.54 93.593 613.276 94.2719C601.736 96.6731 615.128 112.434 599.821 132.061C590.979 143.396 593.118 164.989 590.705 166.973C590.513 167.147 590.27 167.247 590.015 167.256C587.715 167.256 585.806 157.688 583.798 148.117C581.783 138.545 579.669 128.974 576.952 128.974C576.579 128.992 576.218 129.146 575.945 129.406C572.488 132.35 569.497 133.392 566.892 133.392C563.74 133.392 561.153 131.863 559.014 130.332C556.882 128.802 555.165 127.275 553.76 127.275C553.139 127.275 552.585 127.574 552.069 128.302C547.965 134.15 572.028 171.747 559.841 171.747C558.753 171.711 557.677 171.51 556.652 171.149C547.238 168.101 538.826 166.889 531.296 166.889C510.672 166.889 496.701 175.987 487.114 181.399C485.242 182.455 481.294 197.494 479.621 198.264C479.596 198.276 479.565 198.283 479.54 198.284C479.217 198.284 479.609 196.883 479.074 195.486C478.539 194.089 477.078 192.689 473.012 192.689H472.49C468.187 192.689 465.526 190.558 462.641 188.43C459.756 186.302 456.641 184.17 451.468 184.17C450.939 184.17 450.392 184.193 449.82 184.239C439.723 185.054 440.22 194.84 426.753 195.896C426.243 195.935 425.739 195.954 425.223 195.954C420.796 195.954 416.264 194.541 411.762 193.128C407.261 191.714 402.784 190.298 398.475 190.298C396.218 190.268 393.986 190.723 391.922 191.633C382.981 195.636 376.309 196.575 370.129 196.575C367.393 196.575 364.757 196.393 362.077 196.208C359.391 196.022 356.649 195.841 353.714 195.841C353.211 195.841 352.707 195.841 352.191 195.841C348.623 195.922 341.073 196.491 332.406 197.27C329.533 197.524 326.543 197.797 323.534 198.076C320.142 198.401 316.731 198.725 313.443 199.051C311.107 199.278 309.394 200.448 307 201H683C677.665 190.668 665.945 167.061 659.864 141.739C651.937 108.73 653.957 74.0704 638.469 66.6498C637.723 66.2569 636.902 66.0348 636.069 66Z" fill="#1E4D2A"/>
<path d="M508.705 161.461C508.705 161.461 503.092 166.273 501.742 167.419C500.397 168.563 495.163 171.771 495.163 172.456C495.163 172.51 495.235 172.536 495.369 172.536C496.921 172.536 506.528 169.186 507.264 168.484C508 167.782 516.323 163.292 515.275 162.991C514.217 162.691 508.685 161.461 508.685 161.461" fill="#1E4D2A"/>
<path d="M590.577 74C590.577 74 588.031 77.9311 582.98 87.4404C574.193 103.952 567.935 106.034 565.332 106.034C564.88 106.054 564.421 105.973 564 105.798C565.283 107.224 566.646 108.573 568.084 109.837C570.946 110.166 575.061 110.664 576.641 110.974C576.746 110.992 576.852 111.001 576.957 111C578.909 111 583.718 108.308 586.717 106.512C586.94 103.089 587.349 99.7245 588.055 97.6159C592.486 84.5014 590.602 74.0135 590.602 74.0135" fill="#1E4D2A"/>
<path d="M612.671 173C612.671 173 612.415 158.073 612.153 151.06C611.897 144.048 611.897 135 612.671 135C613.444 135 614.75 144.955 615.786 152.192C616.822 159.429 613.707 156.48 614.75 162.596C615.288 165.776 612.671 173 612.671 173Z" fill="#285F37"/>
<path d="M614.181 200.743H682.767L642 331.238H0L614.181 200.743Z" fill="#77C97C"/>
<path d="M451.361 53.9359C451.361 53.9359 457.313 55.6765 460.376 52.6956C463.437 49.7148 462.035 45.093 459.61 42.929C458.999 42.4019 456.549 39.4735 455.555 39.6533L451.934 38.9402C449.943 39.3204 452.892 44.2165 453.067 44.3223C453.243 44.4282 453.134 45.6098 453.388 47.7574C453.673 50.1474 454.335 52.1151 451.361 53.9359Z" fill="black"/>
<path d="M454.205 44.7128C453.78 48.1262 454.065 50.5799 453.615 51.6876C453.166 52.7963 451.675 54.1732 451.675 54.1732C451.323 54.9521 451.161 55.807 451.205 56.6629C451.205 57.6658 452.111 59.7126 451.412 60.8839C450.952 61.6494 449.809 61.2004 448.825 61.4542C448.216 61.6125 448.309 62.9205 448.309 62.9205L417.54 53.9615C417.54 53.9615 422.831 50.844 423.607 47.8467C424.212 45.5143 422.304 41.8902 423.126 37.7801L424.046 34.4139C424.046 34.4139 435.316 31.3848 440.902 33.5909C446.488 35.7959 454.888 39.2258 454.205 44.7128Z" fill="#BA9472"/>
<path d="M450.057 46.4378C448.553 45.6939 444.886 46.8232 442.987 45.81C442.393 45.4935 441.694 44.6017 440.856 43.4621C439.206 41.2088 441.089 35.7855 446.83 36.1544C450.968 38.2649 454.665 41.0033 454.206 44.7126C453.937 46.8653 453.952 48.6378 453.89 49.9304C453.796 49.3601 453.576 48.8196 453.249 48.348C452.24 47.1869 451.092 46.9496 450.057 46.4378Z" fill="#846952"/>
<path d="M448.733 49.9839C447.698 49.7044 449.012 49.6983 450.972 50.2583C451.978 50.5501 452.848 51.1974 453.429 52.0832C453.207 52.4572 452.952 52.8106 452.669 53.1384C452.25 52.4633 450.864 50.5532 448.733 49.9839Z" fill="#846952"/>
<path d="M436.233 40.0118C436.233 40.0118 433.895 40.2697 433.362 42.0011C432.751 43.9955 433.879 43.9318 434.397 45.7362C434.914 47.5405 435.554 46.1687 435.984 45.2984C436.413 44.4281 434.397 44.6172 434.029 43.5568C433.662 42.4964 434.277 40.6921 436.233 40.0118Z" fill="#846952"/>
<path d="M446.023 43.6154C444.151 43.6842 442.863 45.7732 441.218 44.6285C439.226 43.2301 437.763 38.5292 434.97 38.8929C430.982 39.421 432.141 43.7582 431.256 44.6018C428.35 47.3874 425.516 46.7863 423.664 45.7948C423.405 43.6051 422.516 40.8298 423.146 37.7801L424.062 34.4139C424.062 34.4139 435.348 31.3848 440.933 33.5909C444.006 34.8044 447.911 36.3868 450.699 38.4706C450.622 39.8187 450.332 41.1442 449.839 42.3968C449.839 42.3968 449.131 43.4941 446.023 43.6154Z" fill="black"/>
<path d="M450.744 38.1911L435.332 54.8328L433.258 53.0861L448.49 36.4453L450.744 38.1911Z" fill="black"/>
<path d="M436.594 51.7091C436.594 51.7091 431.185 44.9974 427.848 41.959C424.513 38.9196 423.085 37.7749 423.085 37.7749L422.894 39.6635C422.894 39.6635 432.534 48.306 434.339 52.1684C436.145 56.0299 436.594 51.7091 436.594 51.7091Z" fill="black"/>
<path d="M450.125 60.404C450.125 59.9139 449.091 60.0505 448.356 60.2139C447.978 60.293 450.125 61.0637 450.125 60.404Z" fill="#846952"/>
<path d="M454.117 45.6992C454.117 45.6992 439.216 37.031 437.51 36.7875C434.675 36.3816 427.584 39.7797 427.264 39.8855C425.52 40.4547 422.299 38.524 422.299 38.524L423.483 29.9606C423.536 29.6411 423.681 29.3441 423.901 29.1088C424.121 28.8745 424.403 28.7112 424.714 28.6413C425.591 28.444 426.407 28.0268 427.087 27.4278C429.11 25.6389 434.168 21.872 439.568 23.2971C451.107 26.3304 457.236 32.6723 459.129 39.568C459.506 40.9459 459.935 43.2147 459.935 43.2147L459.729 43.1664C458.65 42.9228 457.525 43.0369 456.515 43.4921C455.505 43.9483 454.665 44.721 454.117 45.6992Z" fill="#9B000E"/>
<path d="M454.484 37.2888L458.539 37.7851C458.774 38.3677 458.98 38.9637 459.154 39.5679C459.532 40.9458 459.952 43.23 459.952 43.23L459.708 43.1724C459.279 43.0707 458.839 43.0275 458.4 43.045C458.104 42.9556 457.794 42.8549 457.458 42.7285C453.382 40.2327 454.484 37.2888 454.484 37.2888Z" fill="black"/>
<path d="M451.847 32.8356L441.736 33.9597C440.395 33.0894 439.553 32.5242 439.553 32.5242C438.35 31.9098 436.973 31.7454 435.663 32.0608L428.769 33.712C427.742 33.9586 426.668 33.9114 425.666 33.5744L423.08 32.7143L423.379 30.5463C424.59 31.4381 426.576 32.7195 427.719 32.4821C429.442 32.1338 439.905 29.9554 439.905 29.3954C439.905 28.8365 431.045 26.4146 431.045 26.4146L434.826 28.0823L426.979 29.3482L425.128 28.5251C425.833 28.3011 426.483 27.9271 427.036 27.4277C428.521 26.1197 431.603 23.7081 435.312 23.1378C441.677 24.5404 447.456 27.9302 451.847 32.8356Z" fill="black"/>
<path d="M390.925 162.878L390.123 160.24C402.64 161.649 409.922 156.726 412.467 154.548C411.846 159 409.632 167.115 402.009 176.148C390.501 189.776 386.027 201.733 386.027 201.733C386.027 201.733 375.569 201.321 376.764 198.904C381.062 190.236 380.379 171.252 390.925 162.878Z" fill="#BA9472"/>
<path d="M395.854 170.798C395.627 171.24 395.357 171.658 395.047 172.043C393.609 173.821 389.326 177.609 385.406 180.95C384.795 181.477 385.277 196.599 385.039 201.685C382.452 201.511 375.797 200.873 376.763 198.915C381.062 190.236 380.384 171.252 390.924 162.879L389.202 157.212L388.778 156.896L412.487 150.564L412.694 150.991C412.694 150.991 412.989 154.573 411.173 160.151C408.754 161.861 406.109 163.211 403.317 164.16C400.084 165.31 397.41 167.688 395.854 170.798Z" fill="#846952"/>
<path d="M390.127 160.251L389.207 157.212C389.207 157.212 367.666 141.974 371.452 119.059L395.605 115.156L412.725 150.975C412.759 152.165 412.684 153.356 412.497 154.531C409.922 156.737 402.639 161.681 390.127 160.251Z" fill="#9B000E"/>
<path d="M396.691 142.327L405.128 152.516L408.867 157.017C404.973 159.318 398.838 161.238 390.082 160.257L389.187 157.212L388.763 156.896C386.177 155.08 374.933 145.942 371.861 131.997C381.217 142.29 396.691 142.327 396.691 142.327Z" fill="#720013"/>
<path d="M376.759 198.915C377.833 196.518 378.638 194.005 379.158 191.422C381.693 190.652 383.643 191.054 385.101 191.908C386.673 192.913 387.904 194.387 388.629 196.128C387.673 197.96 386.81 199.839 386.043 201.758C386.043 201.758 384.874 201.711 383.358 201.558C380.332 201.252 375.962 200.524 376.759 198.915Z" fill="black"/>
<path d="M379.35 120.078C390.392 120.331 392.895 123.302 392.895 123.302L396.821 123.064L393.718 124.8C393.718 124.8 381.336 122.605 370.992 123.887C371.009 122.719 371.092 121.553 371.24 120.395C373.934 120.108 376.642 120.002 379.35 120.078Z" fill="#720013"/>
<path d="M382.675 199.907C378.952 198.978 376.469 199.506 374.695 201.812C375.942 197.506 377.344 196.093 379.381 195.618C382.148 194.974 386.783 196.673 386.922 200.862C386.922 201.358 386.963 202.081 386.989 202.904C385.966 201.392 384.429 200.324 382.675 199.907Z" fill="#9B000E"/>
<path d="M373.687 206.001C374.013 204.365 374.339 202.983 374.68 201.812C376.014 200.07 377.783 199.331 380.157 199.479L380.405 198.656C380.514 198.283 380.503 197.883 380.374 197.517C380.246 197.15 380.007 196.834 379.691 196.615L378.626 195.828C378.876 195.727 379.134 195.646 379.397 195.586C380.387 195.404 381.403 195.439 382.378 195.689C383.353 195.937 384.266 196.396 385.055 197.032L383.809 197.48C383.457 197.603 383.152 197.832 382.932 198.138C382.714 198.443 382.592 198.81 382.583 199.189V199.88H382.691C384.446 200.3 385.983 201.373 387.005 202.888C387.047 204.138 387.093 205.605 387.103 206.802C387.113 208.111 372.156 213.667 373.687 206.001Z" fill="white"/>
<path d="M381.532 236.687C381.532 236.687 388.148 236.687 388.81 231.38C389.596 225.122 384.993 220.031 385.189 216.695C385.386 213.361 389.012 207.278 385.975 203.88C382.939 200.482 373.728 200.714 373.562 206.972C373.397 213.23 371.235 216.401 371.292 223.824C371.302 229.744 374.679 236.513 381.532 236.687Z" fill="black"/>
<path d="M447.89 234.625C450.01 234.625 451.728 230.885 451.728 226.272C451.728 221.659 450.01 217.92 447.89 217.92C445.77 217.92 444.052 221.659 444.052 226.272C444.052 230.885 445.77 234.625 447.89 234.625Z" fill="#9B000E"/>
<path d="M445.107 281.978H447.389C461.41 282.089 472.561 259.554 472.772 230.683C472.985 202.028 461.591 179.235 447.719 178.797H446.167C432.146 178.686 420.995 201.221 420.783 230.092C420.576 258.763 431.236 281.561 445.107 281.978ZM445.666 276.286C436.739 274.106 427.931 256.167 428.117 230.345C428.319 203.02 438.461 184.685 447.895 184.49C456.822 186.669 465.63 204.608 465.438 230.429C465.242 257.776 455.094 276.111 445.666 276.306V276.286Z" fill="black"/>
<path d="M446.235 274.138C455.24 274.206 465.015 256.727 465.206 230.588C465.398 204.449 455.897 186.753 446.871 186.753C443.007 186.753 436.765 190.863 432.949 201.083C437.37 189.249 442.196 183.825 448.129 183.867C457.738 183.941 468.222 202.741 468.014 230.609C467.808 258.478 457.391 277.119 447.787 277.04C441.85 276.998 436.568 272.291 432.746 260.335C436 268.492 440.955 274.101 446.235 274.138Z" fill="white"/>
<path d="M442.408 260.805C442.75 260.814 443.084 260.685 443.333 260.444C443.582 260.204 443.728 259.873 443.737 259.523C443.747 259.173 443.62 258.833 443.384 258.579C443.148 258.324 442.823 258.176 442.48 258.166L426.282 257.249L415.72 245.641C415.6 245.507 415.453 245.401 415.291 245.328C415.127 245.255 414.951 245.218 414.774 245.218H400.162C399.819 245.218 399.491 245.358 399.248 245.605C399.005 245.852 398.869 246.188 398.869 246.538C398.869 246.888 399.005 247.223 399.248 247.471C399.491 247.718 399.819 247.857 400.162 247.857H414.209L424.74 259.428C424.968 259.677 425.281 259.827 425.614 259.844L442.335 260.795L442.408 260.805Z" fill="black"/>
<path d="M448.185 229.142C448.255 229.148 448.326 229.148 448.397 229.142C448.633 229.115 448.862 229.04 449.069 228.922C449.277 228.804 449.46 228.646 449.608 228.455C449.756 228.265 449.864 228.046 449.929 227.813C449.993 227.58 450.013 227.335 449.984 227.095L440.639 145.842C440.611 145.599 440.537 145.365 440.42 145.151C440.304 144.937 440.148 144.75 439.961 144.598C439.772 144.447 439.558 144.334 439.328 144.267C439.097 144.201 438.856 144.18 438.619 144.209C438.381 144.237 438.151 144.313 437.942 144.431C437.733 144.55 437.549 144.709 437.4 144.9C437.252 145.091 437.141 145.311 437.076 145.546C437.01 145.781 436.991 146.026 437.018 146.269L446.364 227.522C446.419 227.974 446.635 228.389 446.97 228.688C447.307 228.987 447.739 229.148 448.185 229.142Z" fill="black"/>
<path d="M411.024 247.076C411.426 247.076 411.817 246.938 412.134 246.687C412.452 246.434 412.677 246.082 412.777 245.683L433.982 160.515C434.086 160.046 434.006 159.554 433.76 159.144C433.514 158.734 433.121 158.438 432.664 158.32C432.208 158.201 431.723 158.268 431.315 158.508C430.906 158.747 430.605 159.14 430.475 159.602L411.514 235.785L399.195 148.696C399.161 148.456 399.08 148.225 398.96 148.017C398.838 147.808 398.677 147.626 398.487 147.48C398.296 147.336 398.08 147.23 397.85 147.17C397.619 147.111 397.379 147.097 397.144 147.132C396.909 147.166 396.682 147.248 396.478 147.372C396.274 147.496 396.095 147.659 395.953 147.853C395.81 148.048 395.707 148.269 395.648 148.504C395.59 148.739 395.577 148.984 395.611 149.224L409.234 245.493C409.292 245.916 409.493 246.306 409.801 246.594C410.11 246.883 410.507 247.054 410.925 247.076H411.024Z" fill="black"/>
<path d="M399.33 247.682C399.583 247.683 399.83 247.608 400.041 247.468C400.252 247.327 400.418 247.125 400.519 246.889C400.62 246.653 400.651 246.392 400.608 246.138C400.564 245.884 400.449 245.649 400.276 245.462L386.42 230.271C386.299 230.138 386.153 230.033 385.99 229.96C385.828 229.887 385.651 229.85 385.474 229.849H373.2C372.858 229.849 372.529 229.988 372.286 230.235C372.043 230.483 371.907 230.819 371.907 231.168C371.907 231.518 372.043 231.853 372.286 232.101C372.529 232.349 372.858 232.487 373.2 232.487H384.911L398.383 247.261C398.504 247.394 398.651 247.5 398.814 247.572C398.976 247.645 399.152 247.682 399.33 247.682Z" fill="black"/>
<path d="M380.379 250.274C383.119 250.274 385.339 245.438 385.339 239.473C385.339 233.508 383.119 228.672 380.379 228.672C377.64 228.672 375.419 233.508 375.419 239.473C375.419 245.438 377.64 250.274 380.379 250.274Z" fill="#9B000E"/>
<path d="M377.545 295.575H378.802C395.032 295.702 407.936 269.626 408.179 236.212C408.422 202.798 395.905 176.539 379.675 176.411H378.889C362.659 176.29 348.99 202.366 348.746 235.774C348.503 269.183 361.315 295.454 377.545 295.575ZM378.14 289.207C367.371 288.225 356.277 266.989 356.509 235.822C356.737 204.782 368.054 183.756 378.797 182.78C389.559 183.761 400.654 204.998 400.426 236.165C400.193 267.204 388.877 288.231 378.14 289.207Z" fill="black"/>
<path d="M378.191 286.726C388.619 286.805 399.914 266.571 400.152 236.323C400.39 206.075 389.358 185.671 378.947 185.597C372.838 185.55 366.44 190.167 362.133 202.002C366.709 188.109 373.629 182.211 380.498 182.263C391.613 182.347 403.649 204.101 403.411 236.35C403.173 268.598 391.117 290.166 380.002 290.087C373.134 290.035 366.037 283.688 361.636 269.727C365.763 281.625 372.084 286.679 378.191 286.726Z" fill="white"/>
<path d="M378.972 239.731L399.082 174.57C399.443 173.904 399.94 173.325 400.54 172.872L438.762 154.368L439.486 158.13L402.33 176.354L382.428 240.824C382.31 241.198 382.079 241.523 381.769 241.756C381.459 241.988 381.084 242.114 380.699 242.116C380.525 242.112 380.351 242.083 380.183 242.032C379.723 241.89 379.338 241.569 379.11 241.137C378.884 240.706 378.834 240.2 378.972 239.731Z" fill="black"/>
<path d="M436.766 145.594C437.712 144.143 440.464 139.715 440.464 139.715L444.932 138.882L438.156 149.645C437.441 149.228 436.874 148.586 436.543 147.814C436.422 147.45 436.38 147.063 436.418 146.68C436.456 146.297 436.575 145.926 436.766 145.594Z" fill="black"/>
<path d="M442.656 139.911C444.061 139.909 445.458 139.679 446.793 139.231L453.843 136.872C454.525 136.646 455.23 136.496 455.943 136.423L489.696 134.376C489.934 134.361 490.167 134.298 490.38 134.191C490.594 134.085 490.785 133.936 490.942 133.754C491.101 133.571 491.221 133.359 491.298 133.129C491.376 132.899 491.407 132.656 491.393 132.414C491.378 132.171 491.316 131.934 491.212 131.716C491.107 131.497 490.961 131.302 490.782 131.142C490.603 130.982 490.395 130.858 490.17 130.779C489.945 130.701 489.706 130.668 489.468 130.684L455.684 132.735H455.628C454.637 132.83 453.661 133.038 452.715 133.353L445.667 135.711C443.922 136.297 442.052 136.366 440.271 135.912L437.623 135.236C436.157 134.861 434.638 134.745 433.134 134.893L429.09 135.279C428.609 135.325 428.167 135.563 427.86 135.942C427.552 136.322 427.405 136.81 427.45 137.3C427.496 137.789 427.73 138.241 428.101 138.554C428.472 138.868 428.951 139.018 429.431 138.972L433.475 138.581C434.572 138.478 435.676 138.564 436.744 138.835L439.398 139.51C440.463 139.781 441.558 139.916 442.656 139.911Z" fill="black"/>
<path d="M455.431 133.074C454.728 133.148 454.034 133.298 453.362 133.522L446.312 135.885C444.958 136.334 442.128 139.167 441.803 139.151C441.327 139.119 441.141 136.766 438.912 136.154L436.264 135.479C435.195 135.21 434.09 135.125 432.995 135.231L428.945 135.617C428.745 135.633 428.544 135.616 428.35 135.563C428.588 135.405 428.859 135.305 429.141 135.273L433.186 134.893C434.69 134.747 436.209 134.866 437.675 135.242L440.324 135.917C442.103 136.369 443.97 136.299 445.713 135.716L452.768 133.363C453.713 133.046 454.689 132.837 455.679 132.741H455.736L489.52 130.689C489.703 130.671 489.887 130.689 490.064 130.741C489.809 130.907 489.517 131.007 489.215 131.031L455.431 133.074Z" fill="#FBEFD8"/>
<path d="M426.203 200.196C426.328 191.202 430.9 183.313 430.9 183.313L425.877 176.982C425.805 176.876 425.552 176.576 425.159 176.106C428.261 177.631 432.13 178.269 436.289 176.106C441.326 173.468 443.798 170.186 445.013 167.543C446.498 172.518 447.341 177.04 447.082 180.486C445.733 197.897 439.371 216.475 436.857 241.642C436.185 248.359 423.022 250.305 425.887 234.704C428.266 221.703 426.1 207.637 426.203 200.196Z" fill="#BA9472"/>
<path d="M436.677 175.926C438.322 179.425 439.429 184.712 439.429 184.712C439.429 184.712 429.478 195.433 428.94 202.381C428.159 212.406 429.534 223.845 429.395 231.358C428.413 231.061 427.448 230.709 426.503 230.303C427.797 218.643 426.064 206.797 426.158 200.166C426.282 191.17 430.869 183.281 430.869 183.281L425.867 176.95C425.743 176.771 425.103 176.016 424.089 174.839C426.69 174.465 435.462 173.321 436.677 175.926Z" fill="#846952"/>
<path d="M436.289 176.078C432.151 178.263 428.256 177.662 425.143 176.126C421.005 171.241 400.674 148.114 395.145 139.362C392.258 134.771 391.074 129.464 394.292 122.594C397.959 114.764 425.758 125.427 425.758 125.427C425.758 125.427 439.619 149.471 445.009 167.532C443.814 170.174 441.331 173.436 436.289 176.078Z" fill="#9B000E"/>
<path d="M424.109 149.546C424.109 149.546 434.743 166.794 439.335 174.223C438.373 174.941 437.354 175.578 436.289 176.127C432.151 178.311 428.241 177.71 425.128 176.169C421.218 171.552 402.888 150.648 396.221 140.972C408.645 142.723 412.581 155.597 424.109 149.546Z" fill="#720013"/>
<path d="M394.292 122.595C397.959 114.765 425.78 125.412 425.78 125.412C425.78 125.412 428.21 129.633 431.422 135.854C426.55 132.952 414.488 127.116 393.434 124.742C393.682 124.012 393.969 123.295 394.292 122.595Z" fill="#720013"/>
<path d="M425.857 234.677C425.857 234.677 426.338 231.749 426.498 230.293C427.447 230.698 428.418 231.051 429.405 231.348C432.184 232.25 435.121 232.535 438.016 232.181C437.582 235.226 437.2 238.386 436.873 241.631C436.206 248.332 422.986 250.279 425.857 234.677Z" fill="black"/>
<path d="M417.498 129.765L423.188 146.892L441.911 172.017C441.13 172.824 440.276 173.556 439.362 174.201L422.65 147.139L416.914 129.57L417.498 129.765Z" fill="white"/>
<path d="M447.684 260.124C447.684 260.124 449.644 255.702 444.389 253.402C437.401 250.342 438.156 243.029 437.458 240.243C437.433 240.158 437.386 240.081 437.323 240.019C437.26 239.957 437.184 239.913 437.099 239.891C437.015 239.867 436.927 239.866 436.842 239.887C436.757 239.908 436.68 239.95 436.615 240.011C435.498 241.14 434.438 243.098 432.478 241.556C429.814 239.478 425.888 238.195 424.477 238.998C424.047 239.24 423.184 241.43 422.309 243.931C421.042 247.582 419.723 251.909 419.723 251.909L419.464 252.621C419.418 252.744 419.396 252.877 419.4 253.008C419.404 253.141 419.433 253.271 419.487 253.391C419.54 253.513 419.617 253.621 419.711 253.712C419.806 253.802 419.917 253.872 420.039 253.918C424.44 255.623 443.256 262.662 447.684 260.124Z" fill="#9B000E"/>
<path d="M419.465 252.622L419.729 251.909L420.044 250.854C420.308 250.969 420.644 251.102 421.016 251.255L423.515 245.013V240.697C423.908 239.763 424.249 239.114 424.471 238.987C425.884 238.186 429.809 239.467 432.473 241.547C432.764 241.787 433.1 241.966 433.461 242.074V242.111L426.105 245.91L423.432 252.241C429.731 254.695 441.576 258.779 448.066 257.74C448.14 258.564 448.017 259.395 447.709 260.161C443.283 262.699 424.436 255.65 420.064 253.951C419.815 253.852 419.614 253.657 419.502 253.41C419.39 253.161 419.377 252.88 419.465 252.622Z" fill="white"/>
<path d="M409.555 151.656L395.59 152.289L380.974 146.38C380.433 146.162 379.97 145.784 379.642 145.294C379.316 144.803 379.143 144.224 379.143 143.631C379.143 142.97 379.359 142.326 379.76 141.805C380.16 141.286 380.722 140.917 381.351 140.76C386.772 139.421 400.912 137.564 409.555 151.656Z" fill="black"/>
<path d="M483.143 126.937C482.982 126.501 482.755 126.094 482.471 125.729C481.69 124.078 480.402 121.349 479.497 119.397C475.36 110.644 470.761 99.2526 469.38 97.5223C467.999 95.7919 460.774 84.9546 460.034 83.4349C459.295 81.9152 445.646 87.8348 445.646 87.8348C445.646 87.8348 458.017 105.648 461.203 110.628C464.063 115.113 471.196 123.819 473.756 127.728C473.841 128.163 474.017 128.573 474.273 128.932C476.238 131.733 483.474 131.443 483.143 126.937Z" fill="#BA9472"/>
<path d="M457.417 93.2796C454.158 95.6645 455.865 101.316 457.862 105.621C453.031 98.4881 445.584 87.8296 445.584 87.8296C445.584 87.8296 459.326 81.9152 460.066 83.4298C460.262 83.8305 460.878 84.9063 461.751 86.2729C461.259 89.0965 459.704 91.6119 457.417 93.2796Z" fill="#846952"/>
<path d="M486.726 135.152C486.726 135.152 487.244 137.711 484.781 137.436C483.386 137.152 481.946 137.179 480.561 137.516C478.55 138.012 477.541 136.988 475.948 137.288C474.355 137.59 472.88 135.421 472.88 135.421L486.726 135.152Z" fill="#BA9472"/>
<path d="M482.47 125.729C482.47 125.729 487.947 128.689 488.599 130.235C489.25 131.781 488.273 134.883 487.947 135.326C487.622 135.77 485.238 136.435 482.088 136.102C478.937 135.77 475.038 135.659 473.517 136.213C471.997 136.766 469.297 135.384 469.535 133.437C469.944 130.103 473.755 127.744 473.755 127.744C473.755 127.744 475.824 131.406 479.961 130.245C484.29 129.026 482.47 125.729 482.47 125.729Z" fill="black"/>
<path d="M461.235 83.9148L447.859 92.3148L440.101 82.2903C440.101 82.2903 427.456 99.2742 426.653 107.764C425.852 116.253 425.754 121.134 427.285 128.188C415.984 125.538 404.477 123.905 392.896 123.307C386.478 122.996 376.898 120.928 371.065 122.305C370.69 121.314 370.484 120.264 370.454 119.202C370.847 113.689 373.35 98.5087 380.871 84.4111C395.192 57.5814 417.417 50.2429 417.417 50.2429C417.417 50.2429 424.218 48.158 438.022 53.7087C449.458 58.3048 461.235 83.9148 461.235 83.9148Z" fill="#F9F9F9"/>
<path d="M407.796 118.416C412.13 114.58 424.279 111.631 422.542 107.499C420.803 103.368 415.12 100.883 414.354 100.372C408.484 96.43 424.305 97.6384 428.811 92.7258C433.315 87.8142 438.285 75.4521 438.285 75.4521L440.101 82.3108C440.101 82.3108 427.512 99.2947 426.716 107.784C425.92 116.274 425.806 121.223 427.336 128.277C419.635 126.49 411.842 125.135 403.995 124.219C404.813 122.016 406.113 120.031 407.796 118.416Z" fill="#E5E5E5"/>
<path d="M410.144 83.7246C409.86 84.0945 438.001 84.3946 437.826 84.6063C437.557 84.9433 433.6 90.3152 424.048 87.3919C419.118 85.8824 406.773 89.8929 406.312 90.869C403.307 97.3054 396.402 96.805 392.757 97.2006C375.564 99.1159 376.981 93.5488 376.981 93.5488C376.981 93.5488 377.178 92.7792 377.529 91.4383C378.518 89.0852 379.598 86.7219 380.834 84.3843C395.156 57.5547 417.376 50.1678 417.376 50.1678C417.376 50.1678 421.818 48.7334 430.589 51.1974C430.398 52.8538 430.005 55.5972 429.369 57.1693C428.479 59.396 414.163 78.5696 410.144 83.7246Z" fill="#E5E5E5"/>
<path d="M428.304 53.0439C428.304 53.0439 405.546 88.8377 398.476 92.172C391.406 95.5063 378.884 95.7755 376.981 93.5602C375.077 91.3438 380.829 67.1045 384.599 62.193C386.41 59.8338 395.6 57.0533 401.15 54.0149C402.385 53.3563 403.503 52.4932 404.46 51.4605C406.023 49.7507 408.176 48.7242 410.464 48.5958C417.917 48.1683 432.022 47.9782 428.304 53.0439Z" fill="black"/>
<path d="M401.615 88.589C413.211 83.625 426.1 85.5712 433.02 86.2781C434.756 86.5165 436.522 86.2113 438.084 85.4027L440.101 82.2841C440.101 82.2841 437.965 83.2819 434.499 82.7116C427.155 81.5032 413.853 78.8131 402.391 83.7196L401.615 88.589Z" fill="black"/>
<path d="M519.226 275.211C519.226 276.915 520.586 278.297 522.249 278.297C523.922 278.297 525.282 276.915 525.282 275.211V196.485C525.282 194.78 523.922 193.398 522.249 193.398C520.586 193.398 519.226 194.78 519.226 196.485V275.211Z" fill="black"/>
<path d="M508.695 256.502C509.118 256.501 509.521 256.352 509.844 256.08C510.166 255.809 510.388 255.432 510.469 255.014L526.914 170.594C526.985 170.124 526.874 169.644 526.612 169.254C526.34 168.864 525.937 168.595 525.483 168.502C525.02 168.409 524.546 168.5 524.153 168.757C523.76 169.013 523.478 169.414 523.367 169.876L506.921 254.295C506.871 254.534 506.871 254.779 506.911 255.017C506.962 255.255 507.052 255.481 507.183 255.684C507.314 255.885 507.486 256.059 507.687 256.193C507.889 256.329 508.111 256.422 508.342 256.47C508.453 256.49 508.574 256.502 508.695 256.502Z" fill="black"/>
<path d="M526.582 199.207C527.106 201.275 525.887 217.626 525.887 217.626L532.679 220.053C532.679 220.053 540.287 203.048 540.287 197.35C540.357 188.929 526.149 194.422 526.582 199.207Z" fill="#BA9472"/>
<path d="M535.006 214.592C533.706 217.758 532.679 220.053 532.679 220.053L525.887 217.626C525.887 217.626 526.098 214.703 526.31 211.174C527.912 211.071 529.524 211.324 531.026 211.913C532.517 212.503 533.878 213.418 535.006 214.592Z" fill="white"/>
<path d="M526.592 199.207C526.149 194.422 540.357 188.929 540.307 197.35C540.246 198.695 540.024 200.029 539.652 201.323C537.495 201.792 530.713 203.565 526.491 207.918C526.693 203.982 526.814 200.141 526.592 199.207Z" fill="#846952"/>
<path d="M519.478 225.868C520.445 220.935 523.579 217.911 524.204 216.054C524.839 214.196 526.935 214.555 527.156 215.342C527.368 216.128 527.569 217.056 527.569 217.056C527.569 217.056 532.467 218.872 532.739 220.085C533.021 221.299 533.021 224.707 533.616 226.791C534.452 229.714 541.657 236.341 541.949 241.396C542.111 244.034 527.156 237.475 527.156 237.475L519.478 225.868Z" fill="white"/>
<path d="M530.33 223.172C529.323 222.224 528.597 221 528.254 219.648L527.589 217.056C527.589 217.056 532.547 218.808 532.819 220.022C533.081 221.135 533.041 224.137 533.504 226.232C532.829 225.525 531.429 224.2 530.33 223.172Z" fill="#9B000E"/>
<path d="M539.249 248.038C538.573 248.547 537.747 248.824 536.901 248.83C535.288 248.83 532.416 248.571 530.502 246.762C527.7 244.123 525.796 238.351 522.793 234.927C519.78 231.503 518.339 227.883 519.77 224.902C520.918 222.491 524.335 220.792 527.63 222.216C530.915 223.641 532.598 229.503 534.553 231.857L536.518 234.215C536.518 234.215 540.317 236.98 541.687 240.372C542.171 241.744 542.201 243.242 541.758 244.631C541.314 246.019 540.438 247.217 539.249 248.038Z" fill="black"/>
<path d="M530.491 236.901H521.634V235.28H530.491C530.693 235.28 530.905 235.365 531.046 235.519C531.197 235.671 531.287 235.877 531.287 236.093C531.277 236.308 531.197 236.513 531.046 236.664C530.894 236.815 530.693 236.901 530.491 236.901Z" fill="black"/>
<path d="M521.624 238.235L509.048 256.179L509.38 252.576L521.624 235.275V238.235Z" fill="black"/>
<path d="M521.503 232.663L524.143 239.148C524.183 239.252 524.254 239.34 524.345 239.402C524.435 239.464 524.546 239.496 524.657 239.496H535.711C535.812 239.5 535.903 239.478 535.994 239.431C536.084 239.385 536.155 239.316 536.205 239.231C536.256 239.147 536.286 239.05 536.296 238.951C536.296 238.85 536.276 238.751 536.225 238.663L532.88 232.178C532.829 232.084 532.759 232.005 532.668 231.952C532.578 231.9 532.467 231.873 532.366 231.877H522.017C521.926 231.877 521.835 231.9 521.755 231.944C521.674 231.988 521.604 232.052 521.553 232.13C521.503 232.207 521.473 232.296 521.463 232.39C521.453 232.483 521.473 232.577 521.503 232.663Z" fill="white"/>
<path d="M492.142 200.516C490.527 209.443 490.527 233.877 490.527 233.877C490.527 233.877 498.177 236.637 498.239 234.658C498.637 222.807 505.924 209.517 505.964 203.803C506.005 195.381 493.222 195.899 492.142 200.516Z" fill="#BA9472"/>
<path d="M492.13 212.503C491.546 213.316 491.22 212.962 491.07 211.896C491.217 208.085 491.574 204.286 492.141 200.516C493.217 195.899 506.004 195.381 505.964 203.803C505.944 204.566 505.843 205.327 505.672 206.072C503.253 206.693 494.551 209.127 492.13 212.503Z" fill="#846952"/>
<path d="M490.688 222.043C494.582 220.654 498.363 223.625 499.791 224.95C498.928 228.113 498.407 231.363 498.239 234.642C498.177 236.621 490.527 233.861 490.527 233.861C490.527 233.861 490.522 228.601 490.688 222.043Z" fill="white"/>
<path d="M486.152 234.806C487.704 230.031 490.332 227.097 491.174 225.308C492.018 223.52 494.06 224.153 494.174 224.955C494.288 225.757 494.392 226.707 494.392 226.707C494.392 226.707 499.439 228.849 499.093 230.828C498.877 232.92 498.934 235.034 499.258 237.111C499.74 240.119 506.115 247.575 505.823 252.629C505.672 255.267 491.583 246.935 491.583 246.935L486.152 234.806Z" fill="white"/>
<path d="M501.53 259.504C499.729 259.863 496.993 259.551 494.686 256.786C492.379 254.021 491.252 248.46 488.836 244.946C486.421 241.433 484.646 237.18 486.302 234.563C487.636 232.452 490.983 231.276 493.874 232.981C496.765 234.684 498.528 241.026 500.08 243.433L501.631 245.838C501.631 245.838 504.846 248.83 505.773 252.127C506.216 253.7 506.267 258.538 501.53 259.504Z" fill="black"/>
<path d="M494.391 226.728C494.391 226.728 499.527 228.839 499.185 230.801C498.943 232.742 498.943 234.706 499.185 236.647C496.18 233.962 494.391 226.728 494.391 226.728Z" fill="#9B000E"/>
<path d="M504.009 257.525H491.354C491.08 257.525 490.817 257.414 490.623 257.216C490.429 257.017 490.319 256.749 490.319 256.47C490.319 256.19 490.429 255.921 490.623 255.724C490.817 255.526 491.08 255.415 491.354 255.415H504.009V257.525Z" fill="black"/>
<path d="M488.308 253.7L491.411 259.831C491.475 259.957 491.571 260.063 491.69 260.136C491.808 260.21 491.945 260.248 492.084 260.247H502.8C502.931 260.247 503.062 260.213 503.173 260.147C503.284 260.083 503.375 259.988 503.445 259.875C503.516 259.761 503.546 259.631 503.556 259.499C503.556 259.366 503.526 259.236 503.465 259.119L500.302 252.993C500.239 252.868 500.143 252.765 500.025 252.693C499.907 252.62 499.773 252.582 499.635 252.581H488.981C488.852 252.582 488.725 252.616 488.613 252.679C488.5 252.744 488.405 252.836 488.338 252.948C488.271 253.06 488.233 253.189 488.228 253.32C488.222 253.452 488.25 253.582 488.308 253.7Z" fill="white"/>
<path d="M543.622 193.878C543.622 193.878 542.776 201.328 530.955 201.023C527.761 200.93 524.677 199.801 522.158 197.798C522.158 197.798 518.127 189.119 516.011 188.122C513.905 187.124 506.861 204.716 506.861 204.716C503.012 204.706 499.206 203.949 495.637 202.484C490.134 200.104 489.819 200.864 489.819 200.864L492.131 193.271C492.131 193.271 489.028 184.423 488.929 180.345C488.881 177.902 489.032 175.46 489.38 173.042L530.824 168.895C533.162 172.995 535.107 177.31 536.639 181.785C538.896 188.454 543.622 193.878 543.622 193.878Z" fill="#9B000E"/>
<path d="M499.392 197.244C504.906 197.851 507.194 200.347 508.06 201.772C507.325 203.507 506.841 204.694 506.841 204.694C503.002 204.686 499.189 203.928 495.622 202.462C490.119 200.083 489.803 200.843 489.803 200.843L492.115 193.25C492.115 193.25 492.891 196.548 499.392 197.244Z" fill="#720013"/>
<path d="M533.373 197.968C538.553 196.596 540.397 191.678 540.861 190.159C541.717 191.464 542.675 192.699 543.723 193.852C543.723 193.852 542.775 201.381 530.955 201.075C527.73 200.977 524.627 199.841 522.087 197.83C521.906 197.329 521.704 196.841 521.462 196.369C524.203 197.503 529.191 199.075 533.373 197.968Z" fill="white"/>
<path d="M499.393 200.6C502.306 201.876 506.307 201.656 508.181 201.46C507.365 203.376 506.841 204.742 506.841 204.742C502.992 204.741 499.166 203.989 495.586 202.526C490.083 200.141 489.752 200.943 489.752 200.943L490.915 197.187C493.093 196.955 495.767 199.012 499.393 200.6Z" fill="white"/>
<path d="M508.463 245.817L512.081 245.786L511.668 192.106L508.05 192.734L508.463 245.817Z" fill="black"/>
<path d="M520.022 193.725L511.073 194.253L498.844 189.33C498.388 189.15 497.997 188.834 497.72 188.424C497.443 188.013 497.294 187.528 497.292 187.03C497.292 185.89 498.027 184.692 499.143 184.623C512.152 183.817 516.817 185.067 520.022 193.725Z" fill="black"/>
<path d="M509.411 245.786H508.433L508.02 192.702C508.514 192.268 509.108 191.979 509.753 191.869C510.398 191.758 511.063 191.829 511.668 192.074V192.316L509.411 194.954V245.786Z" fill="#F9F9F9"/>
<path d="M487.936 287.277C485.965 278.456 484.884 266.769 484.884 254.37C484.884 241.97 485.965 230.278 487.936 221.457C490.252 211.068 493.439 206.018 497.674 206.018C501.913 206.018 505.088 211.068 507.405 221.457C509.38 230.278 510.459 241.965 510.459 254.37C510.459 266.774 509.38 278.456 507.405 287.277C505.088 297.666 501.903 302.716 497.674 302.716C493.444 302.716 490.252 297.666 487.936 287.277ZM492.782 223.541C491.023 231.877 490.056 242.825 490.056 254.37C490.056 265.914 491.023 276.857 492.782 285.193C494.737 294.463 496.977 297.17 497.674 297.434C498.367 297.17 500.607 294.463 502.558 285.193C504.322 276.857 505.289 265.909 505.289 254.37C505.289 242.83 504.322 231.882 502.558 223.541C500.607 214.27 498.367 211.569 497.674 211.305C496.977 211.569 494.737 214.27 492.782 223.541Z" fill="black"/>
<path d="M497.421 211.458C497.855 210.835 498.456 210.894 499.055 211.305C499.743 211.769 501.994 214.27 503.949 223.541C505.702 231.882 506.669 242.825 506.669 254.37C506.669 265.914 505.702 276.857 503.949 285.193C501.994 294.463 499.95 296.596 499.371 297.07C498.791 297.545 497.871 297.946 497.379 297.239C498.413 295.778 500.607 291.705 501.973 285.193C503.737 276.857 504.704 265.909 504.704 254.37C504.704 242.83 503.737 231.882 501.973 223.541C500.607 217.03 498.445 212.92 497.421 211.458Z" fill="white"/>
<path d="M556.389 160.338C554.324 157.911 552.187 154.808 547.31 151.283C539.722 145.801 538.785 143.169 534.633 137.038C533.474 135.313 538.352 129.567 538.352 129.567C538.352 129.567 544.257 136.479 548.086 140.826C551.905 145.174 561.236 155.072 562.657 157.741C563.514 159.362 563.655 160.759 561.801 161.435C559.936 162.11 557.286 161.403 556.389 160.338Z" fill="#BA9472"/>
<path d="M539.017 141.413C538.916 142.019 538.815 142.632 538.755 143.185C537.465 141.428 536.316 139.518 534.613 137.039C534.14 136.332 534.674 134.955 535.47 133.577L538.573 129.884L541.516 133.319C541.274 134.622 540.74 137.065 539.964 138.067C539.591 138.68 539.249 140.03 539.017 141.413Z" fill="#846952"/>
<path d="M530.855 168.716C531.086 168.716 531.308 168.671 531.52 168.584C531.6 168.584 539.279 165.497 543.773 165.239C548.419 164.97 566.809 166.263 567.001 166.294C567.232 166.311 567.474 166.28 567.696 166.203C567.928 166.126 568.129 166.005 568.311 165.844C568.492 165.685 568.643 165.491 568.744 165.274C568.855 165.056 568.915 164.819 568.935 164.576C568.946 164.334 568.915 164.09 568.845 163.86C568.764 163.63 568.653 163.416 568.492 163.233C568.341 163.049 568.149 162.899 567.938 162.791C567.716 162.683 567.484 162.618 567.253 162.6C566.487 162.543 548.459 161.266 543.562 161.545C538.493 161.836 530.532 165.007 530.199 165.144C529.806 165.301 529.474 165.593 529.272 165.97C529.071 166.347 529 166.785 529.081 167.208C529.152 167.631 529.373 168.012 529.706 168.287C530.028 168.561 530.441 168.711 530.855 168.711V168.716Z" fill="black"/>
<path d="M543.773 162.237C539.278 162.496 531.6 165.556 531.519 165.587C531.308 165.671 531.086 165.713 530.854 165.714C530.491 165.708 530.128 165.586 529.826 165.365C529.947 165.279 530.078 165.206 530.219 165.15C530.552 165.012 538.492 161.831 543.581 161.54C548.479 161.255 566.506 162.533 567.272 162.595C567.605 162.615 567.917 162.732 568.189 162.933C567.847 163.183 567.434 163.306 567.02 163.282C566.809 163.265 548.438 161.973 543.773 162.237Z" fill="#FBEFD8"/>
<path d="M565.297 165.914C565.297 165.914 565.539 167.956 563.635 167.592C562.556 167.278 561.428 167.209 560.309 167.392C558.707 167.656 557.971 166.79 556.692 166.927C555.412 167.064 554.394 165.266 554.394 165.266L565.297 165.914Z" fill="#BA9472"/>
<path d="M562.556 157.62C562.486 157.457 564.481 158.987 565.076 161.055C565.67 163.123 565.721 164.184 565.428 164.437C565.126 164.69 558.344 163.91 556.661 164.738C555.754 165.153 554.807 165.488 553.84 165.741C553.316 165.895 552.762 165.889 552.248 165.721C551.724 165.554 551.27 165.234 550.928 164.801C550.645 164.431 550.525 164.031 550.827 163.682C551.663 162.669 553.89 161.762 554.384 161.002L554.908 160.247C554.908 160.247 554.767 158.206 555.079 158.612C555.573 159.288 556.208 159.834 556.944 160.207C557.679 160.579 558.495 160.767 559.322 160.754C562.073 160.838 563.494 159.894 562.556 157.62Z" fill="black"/>
<path d="M486.75 133.192C485.292 139.079 483.782 143.602 483.063 147.569C482.272 151.879 482.588 161.361 483.626 164.738C484.454 167.424 487.506 164.738 487.506 164.738L489.678 147.374L496.582 133.402C496.582 133.402 487.407 130.532 486.75 133.192Z" fill="#BA9472"/>
<path d="M480.607 168.7H480.726L493.967 167.813C494.446 167.781 494.895 167.556 495.211 167.187C495.529 166.817 495.689 166.335 495.658 165.845C495.626 165.355 495.406 164.899 495.044 164.575C494.681 164.252 494.208 164.088 493.729 164.12L480.488 165.007C480.008 165.022 479.554 165.233 479.225 165.591C478.898 165.948 478.721 166.424 478.737 166.914C478.753 167.404 478.959 167.866 479.31 168.201C479.66 168.536 480.127 168.716 480.607 168.7Z" fill="black"/>
<path d="M492.834 164.97L479.594 165.857H479.475C479.351 165.856 479.228 165.841 479.107 165.814C479.26 165.578 479.464 165.383 479.704 165.242C479.943 165.1 480.212 165.018 480.489 165.002L493.729 164.115C493.89 164.099 494.052 164.11 494.209 164.147C494.057 164.382 493.854 164.578 493.615 164.721C493.377 164.863 493.11 164.948 492.834 164.97Z" fill="#FBEFD8"/>
<path d="M491.112 167.74C491.112 167.74 491.602 169.735 489.669 169.613C488.555 169.527 487.436 169.602 486.343 169.834C484.98 170.087 483.573 169.919 482.303 169.354C481.031 168.895 481.212 168.521 481.212 168.521L491.112 167.74Z" fill="#BA9472"/>
<path d="M483.095 162.258C483.095 162.142 481.905 163.213 481.601 164.569C481.296 165.924 481.301 166.611 481.502 166.764C481.704 166.917 486.043 166.162 487.16 166.616C487.745 166.853 489.394 167.429 489.394 167.429L489.912 165.144C489.392 164.878 488.918 164.531 488.505 164.115L488.153 163.651C488.145 163.288 488.069 162.93 487.931 162.595C487.801 162.4 487.129 163.577 485.345 163.751C483.561 163.925 483.095 163.086 483.095 162.258Z" fill="black"/>
<path d="M501.641 92.6539C501.641 92.6539 502.246 98.073 502.004 99.3184C501.762 100.564 499.376 103.539 499.376 104.172C499.376 104.805 500.411 105.544 500.411 105.918C500.411 106.293 500.287 110.334 500.84 111.77C501.389 113.205 503.526 115.005 503.526 115.005L522.44 115.875C522.44 115.875 522.642 113.664 526.914 109.543C530.32 106.288 530.109 101.192 530.109 101.192L501.641 92.6539Z" fill="#BA9472"/>
<path d="M509.925 98.8745C506.629 97.0701 506.146 100.458 506.146 100.458L505.46 95.4405L506.216 94.0317L529.202 100.938L530.23 101.212C530.169 103.397 529.585 107.017 526.924 109.565C525.755 110.65 524.697 111.854 523.77 113.158C522.561 112.778 520.052 111.96 517.704 111.048C513.996 109.602 512.766 100.436 509.925 98.8745Z" fill="black"/>
<path d="M506.458 93.2611C506.458 93.2611 506.529 101.07 506.539 107.359C507.627 107.158 527.529 98.4316 527.529 98.4316L529.081 100.421C529.081 100.421 507.456 109.449 506.529 109.649C506.529 113.342 506.529 115.331 506.438 115.326L504.372 115.252V92.6539L506.458 93.2611Z" fill="black"/>
<path d="M507.909 99.7715C507.909 99.7715 509.35 98.4789 510.398 100.004C511.446 101.529 509.531 103.698 509.259 104.753C508.977 105.808 508.131 106.077 507.909 105.011C507.687 103.945 507.466 103.307 507.607 103.053C507.758 102.801 508.08 104.637 508.776 104.193C509.058 104.004 508.312 102.579 509.542 102.326C510.892 102.067 510.156 99.4078 507.909 99.7715Z" fill="#846952"/>
<path d="M530.29 107.022C530.29 107.022 520.747 105.438 518.359 104.209C515.981 102.979 509.793 96.7856 507.838 96.0365C505.873 95.2874 503.435 95.6614 502.034 94.601C500.623 93.5406 495.606 89.1716 495.42 88.6712C495.233 88.1698 505.249 79.4954 514.036 79.4954C524.314 79.4954 537.314 88.9188 537.314 89.3566C537.314 89.7943 533.867 93.9784 534.119 94.4161C534.361 94.8548 535.762 96.5749 535.762 96.5749L532.789 101.027C532.789 101.027 534.008 102.653 533.706 102.964C533.394 103.275 530.29 107.022 530.29 107.022Z" fill="#9B000E"/>
<path d="M515.114 87.9951C505.803 86.2699 504.12 85.6215 507.073 85.6215C510.035 85.6215 525.695 85.8373 525.695 85.8373L505.42 81.7005C508.161 80.4294 511.164 79.4954 514.026 79.4954C524.304 79.4954 537.304 88.9188 537.304 89.3566C537.263 89.3566 524.415 89.7203 515.114 87.9951Z" fill="black"/>
<path d="M532.738 101.027C532.738 101.027 533.958 102.653 533.655 102.964C529.937 102.097 526.289 100.942 522.742 99.5084L532.738 101.027Z" fill="black"/>
<path d="M534.079 94.4161C534.321 94.8548 535.722 96.5749 535.722 96.5749L524.627 94.7757L534.079 94.4161Z" fill="black"/>
<path d="M540.316 130.901C540.316 130.901 534.986 125.098 531.882 122.269C529.212 119.837 525.896 116.846 523.73 115.151C520.576 112.694 513.784 111.459 506.226 113.986C502.246 115.311 494.845 116.149 491.024 122.987C488.924 126.759 485.851 131.909 485.422 133.249C484.993 134.589 486.761 135.36 489.383 136.03C491.028 136.436 492.723 136.587 494.411 136.479C494.469 139.496 494.324 142.514 493.976 145.512C493.64 147.876 493.421 150.257 493.319 152.645C493.319 152.645 488.401 169.26 488.51 173.834C497.475 176.044 506.74 176.722 515.92 175.839C531.328 174.388 531.439 171.712 531.882 169.26C532.315 166.806 528.819 152.867 529.04 147.964C529.262 143.063 530.552 135.466 530.552 135.466L536.155 139.734C536.155 139.734 540.649 136.04 540.316 130.901Z" fill="white"/>
<path d="M527.418 167.207C519.76 168.425 520.132 166.399 517.452 166.626C510.025 167.249 525.765 164.142 524.082 159.239C520.042 147.463 523.367 143.554 513.219 134.077C507.274 128.527 511.758 116.977 511.758 116.977L525.382 116.503C527.388 118.191 529.826 120.397 531.882 122.269C534.976 125.098 540.316 130.901 540.316 130.901C540.649 136.03 536.185 139.712 536.185 139.712L530.592 135.466C530.592 135.466 529.292 143.058 529.081 147.964C528.859 152.872 532.356 166.806 531.922 169.26C531.529 171.428 531.449 173.87 520.757 175.285C521.069 172.288 528.275 167.07 527.418 167.207Z" fill="#E5E5E5"/>
</svg>
