<svg width="48" height="48" viewBox="0 0 48 48" fill="none" xmlns="http://www.w3.org/2000/svg">
<path fill-rule="evenodd" clip-rule="evenodd" d="M12.25 17C12.25 12.1675 16.1675 8.25 21 8.25H27C31.8325 8.25 35.75 12.1675 35.75 17H32.25C32.25 14.1005 29.8995 11.75 27 11.75H21C18.1005 11.75 15.75 14.1005 15.75 17C15.75 19.8995 18.1005 22.25 21 22.25H27C31.8325 22.25 35.75 26.1675 35.75 31C35.75 35.8325 31.8325 39.75 27 39.75H21C16.1675 39.75 12.25 35.8325 12.25 31H15.75C15.75 33.8995 18.1005 36.25 21 36.25H27C29.8995 36.25 32.25 33.8995 32.25 31C32.25 28.1005 29.8995 25.75 27 25.75H21C16.1675 25.75 12.25 21.8325 12.25 17Z" fill="#1C1E21"/>
<path fill-rule="evenodd" clip-rule="evenodd" d="M22.25 44V4H25.75V44H22.25Z" fill="#1C1E21"/>
</svg>
