<svg width="48" height="48" viewBox="0 0 48 48" fill="none" xmlns="http://www.w3.org/2000/svg">
<path fill-rule="evenodd" clip-rule="evenodd" d="M46 39.75H2V36.25H46V39.75Z" fill="#1C1E21"/>
<path fill-rule="evenodd" clip-rule="evenodd" d="M38 11.5H10C9.72386 11.5 9.5 11.7239 9.5 12V30C9.5 30.2761 9.72386 30.5 10 30.5H38C38.2761 30.5 38.5 30.2761 38.5 30V12C38.5 11.7239 38.2761 11.5 38 11.5ZM10 8C7.79086 8 6 9.79086 6 12V30C6 32.2091 7.79086 34 10 34H38C40.2091 34 42 32.2091 42 30V12C42 9.79086 40.2091 8 38 8H10Z" fill="#1C1E21"/>
</svg>
