<svg width="48" height="48" viewBox="0 0 48 48" fill="none" xmlns="http://www.w3.org/2000/svg">
<path fill-rule="evenodd" clip-rule="evenodd" d="M23.9999 19.0542L19.3688 14.2301C16.658 11.4064 12.1419 11.4064 9.43104 14.2301C6.87227 16.8955 6.87227 21.105 9.43104 23.7704L23.9999 38.9464L38.5688 23.7704C41.1276 21.105 41.1276 16.8955 38.5688 14.2301C35.858 11.4064 31.3419 11.4064 28.631 14.2301L23.9999 19.0542ZM22.9179 40.0735C22.9183 40.073 22.9188 40.0725 22.9193 40.0721ZM23.9999 14.0003L26.1062 11.8063C26.2132 11.6948 26.3221 11.5862 26.4328 11.4806C30.5492 7.55057 37.1124 7.65914 41.0937 11.8063C44.9527 15.826 44.9527 22.1745 41.0937 26.1943L25.4427 42.4974C24.6556 43.3173 23.3443 43.3173 22.5572 42.4974L6.90619 26.1943C3.04722 22.1745 3.04722 15.826 6.90618 11.8063C10.8874 7.65914 17.4507 7.55057 21.5671 11.4806C21.6778 11.5862 21.7867 11.6948 21.8937 11.8063L23.9999 14.0003Z" fill="#1C1E21"/>
<path d="M31.6611 25.828L24 33.9999L16.3389 25.828C15.0234 24.4249 15.0234 22.2415 16.3389 20.8384C17.78 19.3013 20.22 19.3013 21.6611 20.8384L24 23.3332L26.3389 20.8384C27.78 19.3013 30.22 19.3013 31.6611 20.8384C32.9765 22.2415 32.9765 24.4249 31.6611 25.828Z" fill="#1C1E21"/>
</svg>
