<svg width="48" height="48" viewBox="0 0 48 48" fill="none" xmlns="http://www.w3.org/2000/svg">
<path fill-rule="evenodd" clip-rule="evenodd" d="M36 7.5H12C11.7239 7.5 11.5 7.72386 11.5 8V40C11.5 40.2761 11.7239 40.5 12 40.5H36C36.2761 40.5 36.5 40.2761 36.5 40V8C36.5 7.72386 36.2761 7.5 36 7.5ZM12 4C9.79086 4 8 5.79086 8 8V40C8 42.2091 9.79086 44 12 44H36C38.2091 44 40 42.2091 40 40V8C40 5.79086 38.2091 4 36 4H12Z" fill="#1C1E21"/>
<path fill-rule="evenodd" clip-rule="evenodd" d="M36.9999 17.75H10.3333V14.25H36.9999V17.75Z" fill="#1C1E21"/>
<path d="M22 20.6665H26V24.6665H22V20.6665Z" fill="#1C1E21"/>
<path d="M16 20.6665H20V24.6665H16V20.6665Z" fill="#1C1E21"/>
<path d="M28 20.6665H32V24.6665H28V20.6665Z" fill="#1C1E21"/>
<path d="M22 27.3335H26V31.3335H22V27.3335Z" fill="#1C1E21"/>
<path d="M16 27.3335H20V31.3335H16V27.3335Z" fill="#1C1E21"/>
<path d="M28 27.3335H32V31.3335H28V27.3335Z" fill="#1C1E21"/>
<path d="M28 34H32V38H28V34Z" fill="#1C1E21"/>
<path d="M16 34H22.6667V38H16V34Z" fill="#1C1E21"/>
<path d="M22.6667 34H26.0001V38H22.6667V34Z" fill="#1C1E21"/>
</svg>
