<svg width="246" height="33" fill="none" xmlns="http://www.w3.org/2000/svg"><path fill-rule="evenodd" clip-rule="evenodd" d="M175.671 11.311c-.083.053-3.479-.085-7.546-.306-4.067-.222-8.818-.44-10.557-.487-4.655-.124-5.751-.19-6.074-.362-.16-.085-.362-.11-.45-.053-.204.13-3.236.071-8.932-.174-2.496-.107-4.643-.156-4.769-.108-.128.048-1.385.074-2.795.059-1.41-.016-2.609.048-2.666.142-.056.094-.379.079-.717-.033-.55-.182-1.288-.245-2.836-.242-.345.001-.444.116-.329.381.156.354.133.352-.328-.03-.406-.337-.785-.406-2.118-.385a36.88 36.88 0 01-2.985-.089c-.84-.07-1.366-.022-1.375.124-.011.16-.319.167-.938.024-.507-.117-1.051-.212-1.21-.21-.158.001-1.257-.041-2.441-.094-1.185-.053-2.275-.056-2.422-.007-.326.11-1.208.118-4.779.046-1.503-.03-3.122-.041-3.598-.026a96.803 96.803 0 01-6.477-.012c-1.185-.045-2.871-.018-3.747.06-1.629.144-5.134.15-6.887.012-.538-.043-1.092.038-1.231.179-.206.208-.25.205-.24-.02.013-.258-.66-.29-2.874-.14a59.382 59.382 0 01-4.617.148c-.87-.01-2.295-.012-3.167-.004-.871.008-2.426 0-3.454-.015-1.028-.017-1.87-.017-1.871-.001-.002.03-.444.085-1.558.193-.377.036-1.674.062-2.883.059-2.369-.008-3.35.011-3.354.067-.002.02-.78.029-1.73.021-2.759-.022-3.926.005-5.622.129a66.4 66.4 0 01-3.177.14l-2.719.042c-.623.01-1.265.101-1.425.203-.188.12-.474.1-.807-.056a1.425 1.425 0 00-1.053-.07c-.296.095-1.239.147-2.095.117-.857-.03-1.886.012-2.288.095-.401.083-1.183.147-1.737.143-2.369-.02-4.492.095-4.814.258-.216.11-.405.096-.505-.04-.103-.14-.49-.165-1.1-.072-.518.08-1.64.145-2.493.146-.853 0-1.669.046-1.812.1-.143.054-.809.104-1.479.11-1.708.017-2.77.077-4.113.234-.638.075-1.382.07-1.654-.009-.273-.08-.5-.068-.507.027-.006.094-.385.157-.841.139-.456-.018-1.074.024-1.373.094-.3.07-1.215.104-2.035.075-.82-.028-1.674.044-1.895.16-.223.116-.656.2-.965.186-1.794-.08-3.347-.018-3.67.145-.203.103-.793.226-1.31.273-.519.047-.947.15-.952.226-.006.078-.43.136-.944.13-1.58-.02-2.095.072-2.022.359.051.2-.027.21-.29.03-.503-.342-2.072-.229-2.801.203-.336.199-.82.348-1.074.331-.628-.04-2.313 1.049-1.934 1.25.161.086.203.331.093.545-.22.43.055.982.357.716.105-.093.489-.269.853-.392.584-.196.66-.175.637.175-.015.223.227.463.552.547.487.127.552.076.41-.317-.092-.257-.366-.606-.61-.775-.386-.27-.353-.289.268-.145.39.09.802.171.915.18.113.009.123.153.02.32-.101.168-.042.314.133.325.174.012.323-.07.33-.183.008-.111.216-.132.464-.044.248.087.574.034.723-.119.222-.225.27-.212.255.069-.01.19.203.43.474.532.738.281 2.9.357 3.358.117.303-.158.51-.12.84.157.355.296.443.31.459.07.01-.164.276-.446.59-.626.556-.319.564-.307.28.438-.217.575-.191.848.107 1.097.532.446 1.25.263 1.293-.33.024-.328.104-.389.251-.194.126.166.433.239.734.175.284-.06.596-.003.692.127.199.27 2.342.009 2.361-.287.006-.094-.108-.126-.253-.071-.145.055-.33-.049-.41-.23-.12-.268-.045-.282.406-.07.304.142.557.193.562.113.005-.08.256.043.558.272.494.376.551.382.572.07.012-.191.215-.335.452-.32.237.015.724-.16 1.083-.389.423-.27.584-.304.458-.096-.278.455.028.62.542.293.57-.364.974-.327.947.088-.012.184.143.302.343.263.2-.038.345-.287.32-.552-.039-.427.008-.445.414-.162.413.29.449.254.365-.365-.073-.549-.02-.635.27-.432.218.152.28.451.155.751-.193.464-.136.5.825.514 1.038.015 1.463-.263 1.224-.802-.071-.16.066-.393.304-.518.36-.188.46-.115.585.426.114.498.307.662.814.695.71.046 1.162-.384.759-.721-.145-.121.006-.302.369-.44.337-.129.521-.138.409-.02-.12.124.033.228.368.25.316.02.66-.053.765-.162.387-.403.735-.15.516.377-.17.409-.127.523.18.47.223-.039.46-.314.529-.61.125-.545.867-1.107 1.149-.87.083.07-.083.357-.37.638-.313.308-.393.52-.2.533.175.011.324-.054.33-.145.006-.09.408-.162.894-.158.543.005.81.087.69.211-.299.31.294.275.705-.043.199-.154.53-.221.735-.149.205.072.453.048.551-.054.098-.102.486-.122.863-.045.376.078.777.044.892-.076.268-.279 2.187-.162 2.168.132-.008.123.132.167.312.1.234-.088.23-.175-.011-.303-.467-.249.095-.443 1.575-.545.835-.058 1.263.009 1.538.24.534.446 1.01.433.81-.022-.152-.349-.129-.35.277-.014.514.425 1.554.404 2.364-.048.764-.427 1.38-.466 1.14-.072-.104.172-.065.32.087.33.153.01.285-.087.293-.215.01-.153.358-.164 1.01-.031.864.176.998.148 1.022-.212.028-.436 1.487-1.299 1.767-1.045.089.082-.002.18-.203.219a.517.517 0 00-.389.453c-.033.52.97.39 1.367-.177l.296-.422.556.465c.5.418.633.44 1.333.222.68-.211.775-.201.757.08-.012.182.228.338.552.359.316.02.58-.058.587-.173.008-.116.337-.19.73-.164.395.025.724-.058.733-.186.008-.128.189-.171.402-.097.233.083.381.005.372-.194-.008-.2.242-.33.635-.33.597.003.615.037.224.42-.392.386-.372.42.256.44.375.012.771-.035.88-.105.11-.07.353-.02.54.11.455.319 1.938-.067 1.764-.46-.155-.347.2-.352.611-.008.214.178.467.196.89.06.459-.146.62-.116.732.134.079.177.381.337.672.356.747.048 2.262-1.011 2.068-1.447-.097-.219-.043-.29.144-.19.165.087.22.342.124.566-.21.486-.016 1.01.382 1.035.158.01.222-.128.142-.307-.162-.365.563-.41.828-.052.09.122.382.228.65.236.298.009.35-.035.133-.114-.193-.071-.329-.334-.302-.583.048-.44.057-.44.27-.018.12.24.236.313.257.162.02-.15.163-.207.316-.125.153.082.29.025.305-.126.016-.166.187-.098.432.172.348.384.447.405.698.151.16-.163.243-.414.183-.556-.063-.15.054-.203.277-.124.46.161.749.72.504.973-.227.237.21.257 1.175.054.513-.108.73-.274.635-.486-.079-.178-.018-.315.135-.305.152.01.272.106.265.215-.028.431 1.214.185 1.507-.298.247-.41.352-.445.55-.182a.729.729 0 01.055.697c-.163.326-.065.364.78.299.531-.041 1.195-.059 1.474-.04.28.02.439-.057.354-.172-.084-.114.037-.195.27-.18.232.015.47.149.526.297.081.211.213.214.598.014.272-.141.752-.19 1.067-.108.315.082.764.026.999-.123.261-.167.488-.187.588-.052.221.299 1.534.283 1.93-.024.244-.188.172-.258-.297-.288-.556-.036-.58-.085-.232-.49.334-.388.397-.398.468-.075.044.206.32.39.613.409.293.019.695.17.893.335.2.167 1.13.374 2.085.464 1.478.14 1.846.096 2.582-.303.785-.426 1.849-.443 1.445-.022-.094.097-.045.186.109.195a.545.545 0 00.441-.235c.13-.202.163-.2.168.011.008.413 1.928.456 2.28.052.242-.277.373-.287.71-.051.33.231.446.236.58.027.116-.182.234-.188.389-.019.122.133.674.264 1.227.29.849.04.996-.022.951-.398-.03-.245.16-.558.423-.695.421-.22.451-.188.257.277-.125.3-.09.596.081.688.166.088.308.057.316-.07.009-.133.342-.168.797-.083.431.08.782.161.781.18-.002.019.366.103.817.186.723.134.804.098.688-.308-.123-.428-.097-.435.351-.094.601.457 1.148.507 1.174.107.011-.166.175-.36.365-.432.232-.088.278-.02.139.207-.151.248-.047.348.394.376.477.031.536-.025.291-.27-.248-.25-.166-.302.414-.264.422.027.714.166.704.335-.025.387.446.399.678.018a.624.624 0 01.552-.265c.287.032.287.059.001.123-.201.046-.371.173-.378.283-.008.118.227.123.575.012.324-.103.583-.11.577-.016-.026.405 1.565.333 2.499-.112.954-.455.993-.457.966-.044-.035.543.957.651 1.407.155.176-.194.312-.232.308-.086-.005.153.365.287.882.32.615.04.852-.03.766-.225-.164-.367 1.841-.36 2.112.008.106.142.346.2.534.13.25-.095.262-.21.046-.428-.177-.178-.186-.34-.021-.402.152-.057.334.1.405.348l.13.452.879-.39c1.03-.455 1.352-.475 1.106-.071-.098.16-.026.347.158.415.185.069.084.116-.224.105-.342-.012-.459.06-.3.186.143.112.679.184 1.19.159.74-.037.923-.139.896-.5-.02-.268.111-.423.321-.378.195.042.365-.042.376-.187.015-.174.108-.15.279.071.142.183.268.239.28.124.013-.116.123-.077.246.084.123.162.752.38 1.399.487.995.163 1.273.121 1.802-.269.566-.418.607-.422.439-.044-.138.31-.04.438.385.5.895.128 1.505.162 2.438.136a45.062 45.062 0 011.728-.008c.787.015.82-.011.373-.3-.464-.298-.459-.319.097-.388.379-.048.581.028.569.215-.011.166.161.25.405.198.233-.05.577-.008.763.091.187.1.867.197 1.512.216l2.537.076c.866.026 1.371-.055 1.382-.221.01-.16.409-.238 1.021-.198.552.035.997.165.989.287-.008.122.124.17.294.106.169-.064.485.008.703.16.274.192.644.233 1.203.133.443-.08 1.302-.075 1.907.011.777.11 1.046.082.913-.096-.115-.156-.018-.217.252-.159.241.052.658-.08.926-.295.482-.385.485-.384.28.07-.149.331-.085.47.225.49.238.015.524-.068.636-.185.112-.116.381-.15.598-.073.218.077.402.011.412-.148.035-.541.88-.488 1.329.084.359.458.636.56 1.578.58.643.013 1.216-.096 1.31-.251.092-.152.357-.209.589-.127.232.082.629.041.882-.09.397-.203.434-.172.264.225-.108.254-.158.464-.113.467.292.02 1.755-.54 1.979-.755.17-.164.191-.057.056.291l-.214.551 2.513.081c1.382.045 2.647-.004 2.811-.109.164-.104.399-.537.522-.96.123-.423.388-.799.589-.834.281-.05.288.063.031.488-.183.304-.273.604-.199.666.074.062-.006.28-.177.486-.242.29-.213.38.128.403.242.015.446-.06.453-.169.007-.108.238-.172.513-.141.275.03.781.006 1.125-.054.374-.065.772.01.995.187.601.477 1.485.413 1.888-.135l.369-.504-.015.586c-.014.583-.007.586 1.641.591.911.003 2.26.04 2.999.081 1.118.063 1.381.002 1.569-.365.201-.393.254-.4.472-.074.191.287.371.328.817.185.394-.125.568-.115.559.035-.008.12.179.23.416.245.236.015.424.119.417.23-.021.322 5.345.462 5.935.155.41-.213.519-.208.609.026.081.21.32.168.89-.153.43-.242.594-.283.366-.092-.513.43-.24.715.378.392.369-.193.452-.183.445.052-.007.194.135.165.434-.09.244-.207.526-.309.625-.226.099.083.374-.001.609-.187.314-.248.464-.265.561-.065.073.15.287.228.475.17.188-.056.022.062-.369.262-.458.235-.601.423-.402.528.17.09.609-.057.976-.328.71-.524 1.603-.633 1.316-.16-.168.274.241.779.652.805.115.008.28-.195.367-.45.154-.455.161-.455.329-.018.156.406.374.456 2.377.544 1.213.053 2.239.08 2.28.058.225-.12 2.615.071 3.186.254.427.137.826.133 1.102-.012.288-.15.494-.15.613.001.33.419 1.415.558 1.824.235.333-.263.315-.293-.121-.203-.316.065-.504.005-.493-.159.03-.47 1.101-.285 1.253.216.119.393.192.42.445.172.166-.163.298-.189.292-.056-.017.36.799.575 1.423.376.315-.1.611-.091.695.023.175.237 2.474.325 3.03.116.26-.098.319-.072.173.08-.141.147.016.24.443.261.636.032 2.657.335 2.653.398-.001.017.609.1 1.356.184.747.084 1.362.092 1.368.018.005-.074.59-.106 1.3-.07.95.047 1.285.145 1.271.37-.013.2.176.28.547.234.311-.039.62.041.685.178.066.137.141.078.167-.132.043-.346.086-.349.476-.022.405.338.692.402 2.82.627.472.05 1.134.174 1.469.275.336.102.697.095.802-.015.122-.126.438-.113.867.037.47.164.722.162.831-.007.086-.134.156-.077.155.126-.001.203.095.379.214.39.902.092 2.58.45 2.982.637.398.185.496.138.524-.253.029-.386.086-.415.293-.146.213.274.262.28.282.035.013-.163.101-.232.196-.153.095.08.42.066.722-.03.632-.203.648-.164.222.542-.246.407-.226.526.092.547.223.014.488-.06.588-.164.205-.213 1.055.02 1.331.365.099.124.525.282.948.35.423.07.944.273 1.158.452.314.263.502.284.966.107.317-.121.58-.283.585-.36.012-.195.596-.067 1.349.294.478.23.632.242.644.051.01-.15.237-.081.567.169.816.62 1.03.276.411-.662-.417-.634-.472-.94-.238-1.328.21-.347.206-.535-.011-.603-.173-.054-.423-.342-.553-.64-.131-.297-.483-.604-.782-.681-.298-.078-.599-.266-.667-.42-.135-.303-5.319-1.866-5.8-1.748-.062.015-.205-.097-.318-.25-.112-.151-1.399-.52-2.859-.817a179.197 179.197 0 01-3.363-.71c-.39-.092-1.415-.267-2.278-.387-.864-.12-1.817-.288-2.118-.374-.301-.085-1.264-.23-2.139-.32-.875-.09-1.909-.248-2.299-.35-.389-.101-1.802-.287-3.14-.414-1.338-.126-2.432-.243-2.431-.26.001-.016-.544-.101-1.211-.189-.744-.098-1.22-.072-1.229.067-.009.153-.138.14-.398-.043-.211-.148-1.429-.351-2.707-.452-1.277-.101-2.318-.236-2.314-.3.004-.065-2.088-.277-4.648-.474-2.561-.196-4.85-.373-5.086-.393-.236-.02-1.27-.058-2.298-.083s-2.188-.125-2.577-.223c-.39-.097-1.132-.136-1.65-.085-.518.05-.937.014-.931-.082.006-.096-.347-.144-.785-.108-1.122.092-11.19-.522-12.468-.76-.583-.11-1.127-.155-1.211-.102zm25.082 5.927c-.003.084-.188.088-.41.01-.223-.079-.321-.28-.219-.448.151-.248.227-.25.41-.009.123.163.222.364.219.447zm-55.009-3.856c.007.087.044.327.084.533.04.206-.026.322-.148.258-.332-.177-.506-.986-.208-.967.143.009.265.088.272.176zm33.245 2.078c-.004.051-.139.143-.302.204-.162.061-.288.011-.28-.111.008-.122.143-.214.301-.204.158.01.284.06.281.111zm-11.375.017c.09.122.027.213-.14.202-.167-.01-.298-.114-.29-.23.007-.115.07-.206.14-.201.07.004.2.107.29.23zm-25.11-1.315c-.003.051-.138.143-.301.204-.162.061-.288.011-.281-.111.008-.122.144-.214.302-.204.157.01.284.06.28.111zm1.641.14c-.1.064-.348.055-.551-.019-.224-.082-.153-.127.182-.115.303.01.469.07.369.134zm1.076.153c.09.122-.045.208-.3.192-.256-.017-.379-.12-.274-.229.105-.11.24-.195.301-.191.06.003.183.106.273.228zm3.012.17c-.006.102-.306.22-.665.263-.63.075-.633.068-.076-.192.672-.313.757-.321.741-.071zm-10.33-.549c-.003.051-.139.143-.301.204-.163.061-.289.011-.281-.111.008-.122.143-.214.301-.204.158.01.284.06.281.111zm-13.284-.611c-.1.063-.347.055-.55-.019-.225-.082-.154-.127.181-.116.303.01.469.071.369.135zm3.093.955c-.103.162-.167.107-.165-.138.002-.222.077-.342.168-.266.091.076.089.258-.003.404zm100.734 6.562c-.035.528-.484.476-.509-.06-.015-.303.091-.463.251-.378a.513.513 0 01.258.438zm-119.149-7.578c.09.122.026.213-.14.202-.167-.01-.298-.114-.291-.23.008-.115.071-.206.14-.202.07.005.2.108.291.23zm15.808 1.136c.077.173.255.322.396.33.413.027.318-.345-.128-.502-.272-.095-.361-.039-.268.172zm111.905 7.225c-.339.262-.327.348.074.543.669.326.597.715-.074.4-.287-.134-.629-.183-.759-.108-.13.074-.14-.032-.022-.237.117-.205.222-.507.233-.67.011-.165.228-.285.484-.269.394.026.404.078.064.341zM93.822 13.078c-.103.162-.167.108-.165-.138.002-.222.077-.341.168-.266.09.076.09.258-.003.404zm137.751 8.515c-.003.05-.138.142-.301.204-.162.061-.288.01-.28-.111.007-.123.143-.215.301-.204.157.01.284.06.28.11zm.853.173c-.007.115-.142.201-.3.191-.158-.01-.281-.113-.273-.228.007-.116.142-.202.3-.192.158.01.281.113.273.229zM93.041 13.199c-.015.231-.144.413-.287.404-.143-.01-.18-.202-.083-.428.098-.225.227-.407.288-.403.06.004.097.196.082.427zm1.72.111c-.007.116-.07.207-.14.202-.069-.004-.2-.108-.29-.23-.09-.121-.026-.212.14-.201.167.01.298.114.29.23zm-2.7.288c-.103.161-.168.107-.166-.139.002-.222.078-.341.169-.265.09.075.09.257-.003.404zm148.581 10.244c-.01.154-.211.268-.448.253-.453-.03-.547-.222-.212-.436.332-.211.68-.115.66.183zm-187.598-8.99c-.112.117-.145.261-.074.321.072.06.216-.032.321-.204.218-.358.057-.433-.247-.117zm-28.358.945c-.216.138-.35.141-.342.01a.506.506 0 01.214-.345c.11-.07.264-.075.342-.01.077.065-.019.22-.214.345zm-16.194.255c-.003.044-.24.195-.526.336-.471.231-.48.223-.103-.087.397-.325.64-.421.629-.249zm4.16 1.244c-.078.459-.533.556-.504.108.016-.25.29-.544.496-.53.043.002.046.192.008.422z" fill="#fff"/></svg>